/* XPM */
static char * bat32_xpm[] = {
"32 32 134 2",
"  	c #222222",
". 	c #212222",
"+ 	c #302A2A",
"@ 	c #413635",
"# 	c #2F2A2A",
"$ 	c #483B3A",
"% 	c #403535",
"& 	c #252424",
"* 	c #2C2828",
"= 	c #2F2A29",
"- 	c #372F2F",
"; 	c #433736",
"> 	c #423736",
", 	c #362E2D",
"' 	c #403532",
") 	c #453835",
"! 	c #3A3131",
"~ 	c #403635",
"{ 	c #463A39",
"] 	c #4D3E3C",
"^ 	c #604B46",
"/ 	c #69514C",
"( 	c #473B3A",
"_ 	c #574542",
": 	c #6D554F",
"< 	c #775C55",
"[ 	c #6F6868",
"} 	c #858385",
"| 	c #8E8B8D",
"1 	c #615958",
"2 	c #8A8889",
"3 	c #584643",
"4 	c #6E554F",
"5 	c #785C55",
"6 	c #787373",
"7 	c #1A1C2C",
"8 	c #67676A",
"9 	c #696262",
"0 	c #4E4E54",
"a 	c #44454B",
"b 	c #878587",
"c 	c #574642",
"d 	c #6E6767",
"e 	c #8B898B",
"f 	c #868486",
"g 	c #584837",
"h 	c #D1A862",
"i 	c #C69F5E",
"j 	c #4A3D34",
"k 	c #CFAB73",
"l 	c #7B7676",
"m 	c #6B573D",
"n 	c #FFCD75",
"o 	c #F2C26F",
"p 	c #594938",
"q 	c #F8CB82",
"r 	c #534340",
"s 	c #654F4A",
"t 	c #716A6A",
"u 	c #8C8A8C",
"v 	c #F8C978",
"w 	c #4C3E3C",
"x 	c #544340",
"y 	c #7E7A79",
"z 	c #F7C772",
"A 	c #363640",
"B 	c #726C6C",
"C 	c #8D8B8C",
"D 	c #868587",
"E 	c #483B33",
"F 	c #A98852",
"G 	c #A0804F",
"H 	c #3C3331",
"I 	c #A48450",
"J 	c #282835",
"K 	c #8D8B8D",
"L 	c #817C7C",
"M 	c #2A2B36",
"N 	c #212330",
"O 	c #8E8C8D",
"P 	c #8F8C8D",
"Q 	c #1F212F",
"R 	c #706B6A",
"S 	c #888687",
"T 	c #3F4048",
"U 	c #908D8E",
"V 	c #918E8F",
"W 	c #181B2B",
"X 	c #827D7D",
"Y 	c #5A5151",
"Z 	c #171A2B",
"` 	c #605F63",
" .	c #918E8E",
"..	c #918F8F",
"+.	c #47474E",
"@.	c #908C8D",
"#.	c #514746",
"$.	c #17192A",
"%.	c #807C7C",
"&.	c #747476",
"*.	c #58585C",
"=.	c #554A4A",
"-.	c #151729",
";.	c #7C7A7A",
">.	c #606064",
",.	c #918F8E",
"'.	c #8E8A8A",
").	c #655D5D",
"!.	c #4E4241",
"~.	c #16182A",
"{.	c #7A7979",
"].	c #767578",
"^.	c #131528",
"/.	c #7A7978",
"(.	c #616065",
"_.	c #8E8A8B",
":.	c #635C5B",
"<.	c #908D8D",
"[.	c #4A3E3D",
"}.	c #787679",
"|.	c #605E5E",
"1.	c #908E8E",
"2.	c #8F8C8B",
"3.	c #202121",
"4.	c #2E2929",
"5.	c #403534",
"6.	c #473A39",
"7.	c #4A3C39",
"8.	c #53423F",
"9.	c #614C48",
"0.	c #705751",
"a.	c #6A524C",
"b.	c #6C544E",
"c.	c #755A53",
"      .   + @ @ +   .     .   # @ $ $ $ $ % # + % @ +   .       ",
". & * = # - ; ; - # = # # = # - ; $ $ $ $ > - - > ; - # = , ' ) ",
"  * ! ~ @ ; { { ; @ ~ @ @ ~ @ ; { $ $ $ $ { ; ; { { ; % ~ ] ^ / ",
"# - ; $ $ $ $ $ $ $ $ $ $ $ $ $ $ $ $ $ $ $ $ $ $ $ $ ( $ _ : < ",
"@ ; { $ $ $ $ $ $ $ $ $ $ [ } | $ $ $ 1 } 2 $ $ $ $ $ $ $ 3 4 5 ",
"$ $ $ $ $ $ $ $ $ $ $ $ $ 6 7 8 $ $ $ 9 7 0 $ $ $ $ $ ( $ _ : < ",
"$ $ $ $ $ $ $ $ $ $ $ $ $ 6 7 8 $ $ $ 9 7 0 $ $ $ $ $ ( $ _ : < ",
"% > { $ $ $ $ $ $ $ $ $ $ 6 7 8 $ $ $ 9 7 0 $ $ $ $ $ ( $ _ : < ",
"# - ; $ $ $ $ $ $ $ $ $ $ 6 7 a 2 2 2 b 7 0 $ $ $ $ $ ( $ _ : < ",
"+ - ; $ $ $ $ $ $ $ $ $ $ 6 7 7 7 7 7 7 7 0 $ $ $ $ $ ( $ c : < ",
"% > { $ $ $ $ $ $ $ $ d e f 7 g h i 7 j h k $ $ $ $ $ ( $ _ : < ",
"@ ; { $ $ $ $ $ $ $ $ l 7 7 7 m n o 7 p n q $ $ $ $ $ ( $ r s : ",
"+ - ; $ $ $ $ t u u u f 7 7 7 m n o 7 p n v u u u | $ $ $ w x _ ",
"  # @ $ $ $ $ y 7 7 7 7 7 7 7 m n o 7 p n z 7 7 7 A $ $ $ ] x 3 ",
". = ~ B C C C D 7 7 7 7 7 7 7 E F G 7 H F I 7 7 7 J C K $ r s : ",
". = ~ L 7 7 7 7 7 7 7 7 7 7 7 7 7 7 7 7 7 7 7 7 7 7 7 M $ r s : ",
"  # @ L 7 7 7 7 7 7 7 7 7 7 7 7 7 7 7 7 7 7 7 7 7 7 7 N O P x 3 ",
"# - ; L 7 7 7 7 7 7 7 7 7 7 7 7 7 7 7 7 7 7 7 7 7 7 7 7 7 Q x _ ",
"@ R O S 7 7 7 7 7 7 7 7 7 7 7 7 7 7 7 7 7 T U V W 7 7 7 7 Q s : ",
"$ X 7 7 7 7 7 7 7 7 7 7 7 7 7 7 7 7 7 7 7 0 $ Y Z 7 7 7 7 Q : < ",
"$ X 7 7 7 7 7 `  . . ...7 7 7 7 7 7 7 +. .@.$ #. .V $.7 7 Q : < ",
"@ %.7 7 7 7 7 &.$ $ $ l 7 7 7 7 7 7 7 *.$ $ $ $ $ =.-.7 7 Q s : ",
"# ;.7 7 7 >.,.'.$ $ $ ).,...7 7 7 0 ,.@.$ $ $ $ $ !. .V ~.Q x _ ",
"  {.7 7 7 ].$ $ $ $ $ $ $ 6 7 7 7 >.$ $ $ $ $ $ $ $ $ !.^.Q ( ( ",
". /.7 (.V _.$ $ $ $ $ $ $ :.V V V <.$ $ $ $ $ $ $ $ $ [.V  .( ( ",
"  {.7 }.$ $ $ $ $ $ $ $ $ $ $ $ $ $ $ $ $ $ $ $ $ $ $ $ $ w x _ ",
"  |.1.2.$ $ $ $ $ $ $ $ $ $ $ $ $ $ $ $ $ $ $ $ $ $ $ ( $ x s : ",
"3.4.5.( $ ( $ $ $ $ ( ( $ $ ( ( ( ( ( ( ( ( $ $ ( ( ( 6.( _ : < ",
"  # @ $ $ $ $ $ $ $ $ $ $ $ $ $ $ $ $ $ $ $ $ $ $ $ $ ( $ c : < ",
") 7.8.c c x w $ $ ] x r ] w r _ c _ _ c _ r w w r _ c _ _ 9.0.< ",
"/ a.b.: : s x ( ( x s s x x s : : : : : : s x x s : : : : 0.c.< ",
"< < < < < : _ ( ( 3 : : 3 _ : < < < < < < : _ _ : < < < < < < < "};
