/* XPM */
static char * bat0148_xpm[] = {
"48 48 211 2",
"  	c #222222",
". 	c #212222",
"+ 	c #292626",
"@ 	c #322E2D",
"# 	c #2E2F2F",
"$ 	c #322D2D",
"% 	c #2F2A2A",
"& 	c #232222",
"* 	c #232322",
"= 	c #242323",
"- 	c #262525",
"; 	c #282525",
"> 	c #282625",
", 	c #2E2929",
"' 	c #312F2F",
") 	c #282626",
"! 	c #322C2C",
"~ 	c #2A2726",
"{ 	c #2E2928",
"] 	c #312B2A",
"^ 	c #322E2C",
"/ 	c #2D2929",
"( 	c #312B2B",
"_ 	c #363332",
": 	c #454048",
"< 	c #322E2E",
"[ 	c #4A3E3C",
"} 	c #2D2625",
"| 	c #231F1F",
"1 	c #2F2828",
"2 	c #302928",
"3 	c #292524",
"4 	c #2B2727",
"5 	c #2C2828",
"6 	c #50423F",
"7 	c #312F2E",
"8 	c #302827",
"9 	c #1B1818",
"0 	c #0F1111",
"a 	c #1E1B1B",
"b 	c #322A2A",
"c 	c #322C2B",
"d 	c #201E1E",
"e 	c #191A1A",
"f 	c #1C1D1D",
"g 	c #1D1D1D",
"h 	c #2B2626",
"i 	c #1B1919",
"j 	c #151414",
"k 	c #141313",
"l 	c #121212",
"m 	c #141414",
"n 	c #1B1A1A",
"o 	c #1D1C1C",
"p 	c #1A1A1A",
"q 	c #1C1C1C",
"r 	c #212020",
"s 	c #2D2525",
"t 	c #131313",
"u 	c #111212",
"v 	c #1B1B1B",
"w 	c #232121",
"x 	c #312828",
"y 	c #1A1817",
"z 	c #0E0F10",
"A 	c #181818",
"B 	c #121313",
"C 	c #1F1D1D",
"D 	c #171818",
"E 	c #1F1F1F",
"F 	c #212121",
"G 	c #1B1C1C",
"H 	c #161514",
"I 	c #191919",
"J 	c #161616",
"K 	c #151515",
"L 	c #252121",
"M 	c #221F1F",
"N 	c #252525",
"O 	c #1D1E1E",
"P 	c #292525",
"Q 	c #1C1B1B",
"R 	c #322A29",
"S 	c #2E2626",
"T 	c #2F2F2F",
"U 	c #231E1E",
"V 	c #3B3130",
"W 	c #332B2B",
"X 	c #242424",
"Y 	c #202020",
"Z 	c #1F1E1E",
"` 	c #2A2626",
" .	c #1E1D1D",
"..	c #202121",
"+.	c #312E2E",
"@.	c #1A1717",
"#.	c #322B2A",
"$.	c #1C1818",
"%.	c #382E2D",
"&.	c #181919",
"*.	c #272727",
"=.	c #232323",
"-.	c #232424",
";.	c #292727",
">.	c #1E1E1E",
",.	c #131212",
"'.	c #0F0E0E",
").	c #312929",
"!.	c #3B3131",
"~.	c #1A1B1B",
"{.	c #262626",
"].	c #282828",
"^.	c #1B1B1C",
"/.	c #171717",
"(.	c #1A1716",
"_.	c #0A0B0B",
":.	c #0D0C0C",
"<.	c #101010",
"[.	c #1F1C1C",
"}.	c #1E1C1C",
"|.	c #292929",
"1.	c #292828",
"2.	c #4A3E3B",
"3.	c #2F2B2A",
"4.	c #151616",
"5.	c #0E1010",
"6.	c #0C0D0D",
"7.	c #090909",
"8.	c #0C0B0B",
"9.	c #251E1E",
"0.	c #0D0E0E",
"a.	c #2C2B2B",
"b.	c #3D3735",
"c.	c #131414",
"d.	c #111111",
"e.	c #0C0C0C",
"f.	c #060B0B",
"g.	c #050C0C",
"h.	c #0A0C0C",
"i.	c #0E0D0D",
"j.	c #0E0E0E",
"k.	c #090E0E",
"l.	c #080C0C",
"m.	c #0A0A0A",
"n.	c #0B0A0A",
"o.	c #2C2B2A",
"p.	c #282929",
"q.	c #2A2727",
"r.	c #180D0D",
"s.	c #1E1110",
"t.	c #151111",
"u.	c #0F1010",
"v.	c #141010",
"w.	c #1E1010",
"x.	c #0B0B0B",
"y.	c #2A2A2A",
"z.	c #2B2A2A",
"A.	c #443A38",
"B.	c #50413F",
"C.	c #292423",
"D.	c #0D1010",
"E.	c #180E0E",
"F.	c #670F0E",
"G.	c #7D100F",
"H.	c #431211",
"I.	c #001212",
"J.	c #190F0F",
"K.	c #101313",
"L.	c #070E0E",
"M.	c #201010",
"N.	c #8D0F0E",
"O.	c #A90D0B",
"P.	c #5B1110",
"Q.	c #8C0F0D",
"R.	c #221313",
"S.	c #111616",
"T.	c #2E2A2A",
"U.	c #211111",
"V.	c #070F0F",
"W.	c #0B0C0C",
"X.	c #201B1B",
"Y.	c #191010",
"Z.	c #681110",
"`.	c #431111",
" +	c #1A1111",
".+	c #070B0B",
"++	c #030505",
"@+	c #1F1A19",
"#+	c #1F1A1A",
"$+	c #1F1212",
"%+	c #161212",
"&+	c #1B1111",
"*+	c #100F0F",
"=+	c #2B2323",
"-+	c #1E1919",
";+	c #080D0D",
">+	c #0C1212",
",+	c #0B0F0F",
"'+	c #2E2625",
")+	c #201A1A",
"!+	c #060808",
"~+	c #0E0C0C",
"{+	c #2F2626",
"]+	c #100E0E",
"^+	c #151212",
"/+	c #040606",
"(+	c #060707",
"_+	c #211B1A",
":+	c #272525",
"<+	c #514548",
"[+	c #4F4240",
"          .   + @ # # # @ +   .         .   + $ # # # # # # # # # $ % $ # # # @ +   .   & & * * ",
"    = - ; > + , ' # # # ' , + > ) + + ) > + , ' # # # # # # # # # ' ! ' # # # ' , + > ~ { ] ^ @ ",
". = ) / ( ! $ ' # # # # # ' $ ! $ $ $ $ ! $ ' # # # # # # # # # # # # # # # # # ' $ $ ' # # # # ",
"  - , ' # # # # # # # # # # # # # # # # # # # # # # # # # # # # # # # # # # # # # # # # # _ : : ",
"+ / < # # # # # # # # # # # # # # # # # # # # # # # # # # # # # # # # # # # # # # # # # # : : : ",
"$ ' # # # # # # # # # # # # # # # # # # # # # # # # # # # # # # # # # # # # # # # # # # [ : : : ",
"# # # # # # # # # # # # # # # } | 1 # # # # # # # # # # # # 2 3 4 5 # # # # # # # # # # 6 : : : ",
"# # # # # # # # # # # 7 $ $ 8 9 0 a b # # # # # # # # # # c d e f g h 7 # # # # # # # # 6 : : : ",
"# # # # # # # # # # b i j k k l l m n 7 # # # # # # # # c o p p p p n q r < # # # # # # [ : : : ",
"# # # # # # # # # s 9 t l u u l l m n 7 # # # # # # # 1 d p p p p p p p v w c # # # # # [ : : : ",
"# # # # # # # # x y z m v A l l B a b # # # # # # # c C D p p p p p E F q G 4 # # # # # [ : : : ",
"# # # # # # # $ H l m I E q J K a 1 # # # # # # # 7 C L M p p p v g   N E O P # # # # # [ : : : ",
"$ ' # # # # # $ m l v E I q E Q R # # # # S T # # ! U V W o p p g X   Y N F Z ` # # # # [ : : : ",
"% ! # # # # # '  .q ....J q . Q +.# # # 8 @.#.# # ! $.x %.W M &.g *.X Y *.=.v Y ' # # # [ : : : ",
"$ ' # # # # # # X -.;.` Q >.F A 8 # # x ,.'.! # # ! '.k ).!.L ~.Y *.{.X ].  ^.r T # # # [ : : : ",
"# # # # # # # # - - ' # 4 =.F /.$.U U (._.:.#.# # #.'.<.[.L }.F *.|.|.1.|.  q F T # # # 2.: : : ",
"# # # # # # # # # # # # # 3.F 4.<.5.6._.7.8.9.#.#.9.:.0.m &.p . a.T # T a.N =.- # # # # b.: : : ",
"# # # # # # # # # # # # # # 4 Q c.d.e.f.g.h.i.j.k.l.m.n.t p g ) ' # # # ' o.p.|.# # # # # : : : ",
"@ ' # # # # # # # # # # # # # q.p d.e.r.s.t.u.v.w.r.n.x.t q N ' # # # # # T y.z.# # # # # # A.B.",
"+ , ' # # # # # # # # # # # # # C.D.E.F.G.H.I.H.G.F.J.K./.g *.# # # # # # # # # # # # # # # # # ",
"  + $ # # # # # # # # # # # # # #.L.M.N.O.P.I.P.O.Q.R.S./. .T.# # # # # # # # # # # # # # # A.: ",
". > ! # # # # # # # # # # # # # ! L.M.N.O.P.I.P.O.N.U.V.W.X.# # # # # # # # # # # # # # # : : : ",
". > c # # # # # # # # # # # # # #.l.Y.Z.G.`.I.`.G.Z. +.+++@+# # # # # # # # # # # # # # # : : : ",
". > ! # # # # # # # # # # # # # T #+k  +$+%+u %+$+&+*+e.%+=+# # # # # # # # # # # # # # # : : : ",
"  + $ # # # # # # # # # # # # # # # -+;+>+u l u >+,+x.:.'+# # # # # # # # # # # # # # # # # A.: ",
"+ , ' # # # # # # # # # # # # # # # )+!+j.j.j.j.j.e.7.~+! # # # # # # # # # # # # # # # # # # # ",
"$ ' # # # # # # # # # # # # # # # # =+%+m.m.m.m.m.m.7.:.c # # # # # # # # # # # # # # # # # A.B.",
"# # # # # # # # # # # # # # # # # # # {+'.m.m.m.m.m.m.]+! # # # # # # # # # # # # # # # # : : : ",
"# # # # # # # # # # # # # # # # # # # # {+^+/+(+(+/+^+{+# # # # # # # # # # # # # # # # b.: : : ",
"# # # # # # # # # # # # # # # # # # # # # =+@+_+_+@+=+# # # # # # # # # # # # # # # # # 2.: : : ",
"# # # # # # # # # # # # # # # # # # # # # # # # # # # # # # # # # # # # # # # # # # # # 2.: : : ",
"# # # # # # # # # # # # # # # # # # # # # # # # # # # # # # # # # # # # # # # # # # # # A.: : : ",
"# # # # # # # # # # # # # # # # # # # # # # # # # # # # # # # # # # # # # # # # # # # # # : : : ",
"$ ' # # # # # # # # # # # # # # # # # # # # # # # # # # # # # # # # # # # # # # # # # # # # A.2.",
"+ , ' # # # # # # # # # # # # # # # # # # # # # # # # # # # # # # # # # # # # # # # # # # # # # ",
"  + $ # # # # # # # # # # # # # # # # # # # # # # # # # # # # # # # # # # # # # # # # # # # # # ",
". > ! # # # # # # # # # # # # # # # # # # # # # # # # # # # # # # # # # # # # # # # # # # # # # ",
"  ) $ # # # # # # # # # # # # # # # # # # # # # # # # # # # # # # # # # # # # # # # # # # # # # ",
"  + $ # # # # # # # # # # # # # # # # # # # # # # # # # # # # # # # # # # # # # # # # # # # A.2.",
"  ) $ # # # # # # # # # # # # # # # # # # # # # # # # # # # # # # # # # # # # # # # # # # : : : ",
". ; ! # # # # # # # # # # # # # # # # # # # # # # # # # # # # # # # # # # # # # # # # # A.: : : ",
"..:+c # # # # # # # # # # # # # # # # # # # # # # # # # # # # # # # # # # # # # # # # # 2.: : : ",
"* + $ # # # # # # # # # # # # # # # # # # # # # # # # # # # # # # # # # # # # # # # # # 6 : : : ",
"7 # # # # # # # # # # # # # # # # # # # # # # # # # # # # # # # # # # # # # # # # # # # <+: : : ",
"# # # # A.2.2.A.# # # # # # # # # # # # # # b.2.[ [ [ [ [ [ 2.b.# # # # # b.2.[ [ [ B.<+: : : : ",
": : : : : : : : : # # # # # # : : : # # # : : : : : : : : : : : : # # # : : : : : : : : : : : : ",
": : : : : : : : : A.# # # # A.: : : A.# A.: : : : : : : : : : : : A.# A.: : : : : : : : : : : : ",
": : : : : : : : : 2.# # # # [+: : : [+# B.: : : : : : : : : : : : B.# B.: : : : : : : : : : : : "};
