/* XPM */
static char * bat0248_xpm[] = {
"48 48 235 2",
"  	c #222222",
". 	c #212222",
"+ 	c #292626",
"@ 	c #322E2D",
"# 	c #2E2F2F",
"$ 	c #322D2D",
"% 	c #2F2A2A",
"& 	c #232222",
"* 	c #232322",
"= 	c #242323",
"- 	c #262525",
"; 	c #282525",
"> 	c #282625",
", 	c #2E2929",
"' 	c #312F2F",
") 	c #282626",
"! 	c #322C2C",
"~ 	c #2A2726",
"{ 	c #2E2928",
"] 	c #312B2A",
"^ 	c #322E2C",
"/ 	c #2D2929",
"( 	c #312B2B",
"_ 	c #363332",
": 	c #554647",
"< 	c #454048",
"[ 	c #322E2E",
"} 	c #312929",
"| 	c #312A2A",
"1 	c #312F2E",
"2 	c #302828",
"3 	c #171616",
"4 	c #181818",
"5 	c #191919",
"6 	c #252121",
"7 	c #262222",
"8 	c #1D1D1D",
"9 	c #212020",
"0 	c #222121",
"a 	c #4A3E3C",
"b 	c #251F1F",
"c 	c #231E1E",
"d 	c #1C1919",
"e 	c #121212",
"f 	c #131313",
"g 	c #181717",
"h 	c #242020",
"i 	c #272222",
"j 	c #2F2928",
"k 	c #1D1C1C",
"l 	c #1A1A1A",
"m 	c #1B1B1B",
"n 	c #1C1C1C",
"o 	c #242222",
"p 	c #2B2727",
"q 	c #2C2828",
"r 	c #50423F",
"s 	c #262020",
"t 	c #111111",
"u 	c #0F1010",
"v 	c #101111",
"w 	c #111212",
"x 	c #141414",
"y 	c #131414",
"z 	c #1D1B1B",
"A 	c #322A29",
"B 	c #322A2A",
"C 	c #201E1E",
"D 	c #171818",
"E 	c #181919",
"F 	c #1C1D1D",
"G 	c #2C2727",
"H 	c #221D1D",
"I 	c #161616",
"J 	c #262221",
"K 	c #272322",
"L 	c #2A2626",
"M 	c #50413F",
"N 	c #2D2625",
"O 	c #231E1D",
"P 	c #211C1C",
"Q 	c #161514",
"R 	c #1F1F1F",
"S 	c #151515",
"T 	c #212121",
"U 	c #262626",
"V 	c #1F1E1E",
"W 	c #292525",
"X 	c #322C2B",
"Y 	c #4A3E3B",
"Z 	c #302827",
"` 	c #1A1717",
" .	c #0D0F0F",
"..	c #121111",
"+.	c #171717",
"@.	c #282222",
"#.	c #202020",
"$.	c #292929",
"%.	c #232323",
"&.	c #1E1E1E",
"*.	c #1B1C1C",
"=.	c #232121",
"-.	c #151514",
";.	c #302928",
">.	c #282828",
",.	c #1D1E1E",
"'.	c #1E1F1F",
").	c #2C2929",
"!.	c #1B1A19",
"~.	c #322B2A",
"{.	c #282727",
"].	c #272727",
"^.	c #292828",
"/.	c #1F1F20",
"(.	c #1F1C1C",
"_.	c #2F2F2F",
":.	c #1C1B1B",
"<.	c #191A1A",
"[.	c #252525",
"}.	c #292727",
"|.	c #282423",
"1.	c #141212",
"2.	c #201B1B",
"3.	c #201D1D",
"4.	c #242121",
"5.	c #161515",
"6.	c #292322",
"7.	c #312E2E",
"8.	c #26201F",
"9.	c #0C0C0C",
"0.	c #0D0C0C",
"a.	c #0E0D0D",
"b.	c #221F1F",
"c.	c #3D3735",
"d.	c #141313",
"e.	c #241F1E",
"f.	c #0C0D0D",
"g.	c #090A0A",
"h.	c #2F2625",
"i.	c #0D0D0D",
"j.	c #352C2B",
"k.	c #413535",
"l.	c #282323",
"m.	c #1C1C1D",
"n.	c #2D2B2B",
"o.	c #302D2D",
"p.	c #312D2D",
"q.	c #2E2A29",
"r.	c #211B1B",
"s.	c #060808",
"t.	c #0A0A0A",
"u.	c #0B0B0B",
"v.	c #181414",
"w.	c #201B1A",
"x.	c #0F0E0E",
"y.	c #352B2B",
"z.	c #413635",
"A.	c #443A38",
"B.	c #2C2827",
"C.	c #282221",
"D.	c #2F2726",
"E.	c #181514",
"F.	c #000B0B",
"G.	c #000E0E",
"H.	c #080E0E",
"I.	c #040C0C",
"J.	c #000C0C",
"K.	c #080909",
"L.	c #352B2A",
"M.	c #423635",
"N.	c #2A2727",
"O.	c #120D0D",
"P.	c #420E0E",
"Q.	c #511111",
"R.	c #2C1212",
"S.	c #071212",
"T.	c #110C0C",
"U.	c #0F0F0F",
"V.	c #312828",
"W.	c #3C3231",
"X.	c #2F2C2B",
"Y.	c #4B4143",
"Z.	c #060D0D",
"`.	c #1E100F",
" +	c #800F0E",
".+	c #9B0E0C",
"++	c #531111",
"@+	c #001212",
"#+	c #800F0D",
"$+	c #1F1212",
"%+	c #121717",
"&+	c #211E1E",
"*+	c #232424",
"=+	c #2F2B2B",
"-+	c #282322",
";+	c #050D0D",
">+	c #211010",
",+	c #900F0D",
"'+	c #AD0D0A",
")+	c #5D1110",
"!+	c #221212",
"~+	c #0D1414",
"{+	c #312C2C",
"]+	c #1E1010",
"^+	c #81100F",
"/+	c #1E1111",
"(+	c #050C0D",
"_+	c #2D2A2A",
":+	c #10100F",
"<+	c #141010",
"[+	c #431211",
"}+	c #151111",
"|+	c #0A0C0C",
"1+	c #0A0B0B",
"2+	c #191616",
"3+	c #000F10",
"4+	c #0D1212",
"5+	c #131212",
"6+	c #001011",
"7+	c #241E1D",
"8+	c #201A1A",
"9+	c #090B0B",
"0+	c #0E0E0E",
"a+	c #221C1B",
"b+	c #09090A",
"c+	c #090909",
"d+	c #0E0C0C",
"e+	c #231D1D",
"f+	c #0B0A0A",
"g+	c #1F1919",
"h+	c #0F0D0D",
"i+	c #202121",
"j+	c #272525",
"k+	c #574847",
"l+	c #514548",
"          .   + @ # # # @ +   .         .   + $ # # # # # # # # # $ % $ # # # @ +   .   & & * * ",
"    = - ; > + , ' # # # ' , + > ) + + ) > + , ' # # # # # # # # # ' ! ' # # # ' , + > ~ { ] ^ @ ",
". = ) / ( ! $ ' # # # # # ' $ $ $ $ $ $ ! $ ' # # # # # # # # # # # # # # # # # ' $ $ ' # # # # ",
"  - , ' # # # # # # # # # # # # # # # # # # # # # # # # # # # # # # # # # # # # # # # # # _ : < ",
"+ / [ # # # # # # # # # # # } | ] 1 # # # # # # # # # # # # # ' ' ' # # # # # # # # # # # < < < ",
"$ ' # # # # # # # # # # # 2 3 4 5 6 # # # # # # # # # # # # 7 8 9 0 [ # # # # # # # # # a < < < ",
"# # # # # # # # # # # b c d e f f g h i j # # # # # # j i 6 k l m n o p q # # # # # # # r < < < ",
"# # # # # # # # # # s t u v w e e e x y z A # # # # B C D E l l 5 5 m F 8 G # # # # # # r < < < ",
"# # # # # # # # # H t e e x I f e e e e g J # # # # K k l l l n 8 8 n l l 8 L # # # # # M < < < ",
"# # # # # # N O P Q t e f m R I e e e S 6 # # # # # # 6 E l l T U U T m l l V W p X # # Y < < < ",
"# # # # ' Z `  .v w ..x m T   +.t e f @.# # # # # # # i D l l #.U $.U %.  &.l *.*.=.@ # # < < < ",
"# # # ( =.4 3 x e e x 5   %.R I e w -.$ # # # # # # # ;.C l l 8 T U >.$.$.%.,.8 8 '.& ).# < < < ",
"$ ' # # X & T m f f m   %.&.I f e f !.1 # # # # # # # # ~.m l m 8   U $.$.>.{.].].].^.# # < < < ",
"% ! # # # ' ) /.*.*.#.%.&.n l x f (.X # # # # # # # # # _.:.<.l n %.[.U $.[ # # # # # # r < < < ",
"$ ' # # # # [ / / / }.T +.n T +.y i # # # O ! # # ! O # X m l l R ].[.%.>.# # # # # # # a < < < ",
"# # # # # # # # # # ' & +.n T +.S |.# # P 1.! # # ! 1.2.3.m l 8   ].[.%.>.# # # # # # # Y < < < ",
"# # # # # # # # # # # [ 4.n l 5.6.7.$ 8.9.0.! # # ! a.u 6.B b.8 %.>.].[.>.# # # # # # # c.< < < ",
"# # # # # # # # # # # # / m e d.7.# e.f.g.0.h.# # h.i...j.k.l.m.%.>.n.o.p.# # # # # # # # : < < ",
"@ ' # # # # # # # # # # q.n e d.7.# r.s.t.u.v.w.w.v.t.x.y.z.l.m.  >._.# # # # # # # # # # # A.M ",
"+ , ' # # # # # # # # # # B.l x C.D.E.F.G.H.a.I.J.F.K.0.L.M.l.n   >.# # # # # # # # # # # # # # ",
"  + $ # # # # # # # # # # # N.:.x t O.P.Q.R.S.R.Q.P.T.U.V.W.K ,.[.X.# # # # # # # # # # # # A.Y.",
". > ! # # # # # # # # # # # # ~ 4 Z.`. +.+++@+++.+#+$+%+&+7 0 *+=+# # # # # # # # # # # # < < < ",
". > X # # # # # # # # # # # # # -+;+>+,+'+)+@+)+'+,+!+~+I *.%.{+# # # # # # # # # # # # # < < < ",
". > ! # # # # # # # # # # # # # ~.H.]+^+.+++@+++.+^+/+(+v k _+# # # # # # # # # # # # # # < < < ",
"  + $ # # # # # # # # # # # # # ! :+<+[+Q.R.S.R.Q.[+}+|+1+P # # # # # # # # # # # # # # # # A.Y.",
"+ , ' # # # # # # # # # # # # # # D.2+3+@+4+5+4+@+6+i.0.7+_.# # # # # # # # # # # # # # # # # # ",
"$ ' # # # # # # # # # # # # # # # # 8+9+t t t t t 0+g.0.~.# # # # # # # # # # # # # # # # # A.M ",
"# # # # # # # # # # # # # # # # # # a+b+9.9.9.9.9.u.c+d+! # # # # # # # # # # # # # # # # < < < ",
"# # # # # # # # # # # # # # # # # # _.e+K.K.t.t.t.t.K.f+~.# # # # # # # # # # # # # # # c.< < < ",
"# # # # # # # # # # # # # # # # # # # _.g+h+K.c+c+K.h+g+_.# # # # # # # # # # # # # # # Y < < < ",
"# # # # # # # # # # # # # # # # # # # # # g+f+d+d+f+g+# # # # # # # # # # # # # # # # # Y < < < ",
"# # # # # # # # # # # # # # # # # # # # # _.~.! ! ~._.# # # # # # # # # # # # # # # # # A.< < < ",
"# # # # # # # # # # # # # # # # # # # # # # # # # # # # # # # # # # # # # # # # # # # # # < < < ",
"$ ' # # # # # # # # # # # # # # # # # # # # # # # # # # # # # # # # # # # # # # # # # # # # A.Y ",
"+ , ' # # # # # # # # # # # # # # # # # # # # # # # # # # # # # # # # # # # # # # # # # # # # # ",
"  + $ # # # # # # # # # # # # # # # # # # # # # # # # # # # # # # # # # # # # # # # # # # # # # ",
". > ! # # # # # # # # # # # # # # # # # # # # # # # # # # # # # # # # # # # # # # # # # # # # # ",
"  ) $ # # # # # # # # # # # # # # # # # # # # # # # # # # # # # # # # # # # # # # # # # # # # # ",
"  + $ # # # # # # # # # # # # # # # # # # # # # # # # # # # # # # # # # # # # # # # # # # # A.Y ",
"  ) $ # # # # # # # # # # # # # # # # # # # # # # # # # # # # # # # # # # # # # # # # # # : < < ",
". ; ! # # # # # # # # # # # # # # # # # # # # # # # # # # # # # # # # # # # # # # # # # A.< < < ",
"i+j+X # # # # # # # # # # # # # # # # # # # # # # # # # # # # # # # # # # # # # # # # # Y < < < ",
"* + $ # # # # # # # # # # # # # # # # # # # # # # # # # # # # # # # # # # # # # # # # # r < < < ",
"1 # # # # # # # # # # # # # # # # # # # # # # # # # # # # # # # # # # # # # # # # # # # k+< < < ",
"# # # # A.Y Y A.# # # # # # # # # # # # # # c.Y a a a a a a Y c.# # # # # c.Y a a a M k+< < < < ",
"< < < < < < < < l+# # # # # # < < < # # # < < < < < < < < < < < < # # # : < < < < < < < < < < < ",
"< < < < < < < < < A.# # # # A.< < < A.# A.< < < < < < < < < < < < A.# A.< < < < < < < < < < < < ",
"< < < < < < < < < Y # # # # r < < < r # M < < < < < < < < < < < < M # M < < < < < < < < < < < < "};
