/* XPM */
static char * bat0348_xpm[] = {
"48 48 217 2",
"  	c #222222",
". 	c #212222",
"+ 	c #292626",
"@ 	c #322E2D",
"# 	c #2E2F2F",
"$ 	c #322D2D",
"% 	c #2F2A2A",
"& 	c #232222",
"* 	c #232322",
"= 	c #242323",
"- 	c #262525",
"; 	c #282525",
"> 	c #282625",
", 	c #2E2929",
"' 	c #312F2F",
") 	c #282626",
"! 	c #322C2C",
"~ 	c #2A2726",
"{ 	c #2E2928",
"] 	c #312B2A",
"^ 	c #322E2C",
"/ 	c #2D2929",
"( 	c #312B2B",
"_ 	c #363332",
": 	c #604B46",
"< 	c #574748",
"[ 	c #322E2E",
"} 	c #574849",
"| 	c #454048",
"1 	c #4A3E3C",
"2 	c #50423F",
"3 	c #2E2626",
"4 	c #2F2F2F",
"5 	c #302827",
"6 	c #1A1717",
"7 	c #322B2A",
"8 	c #131212",
"9 	c #0F0E0E",
"0 	c #141313",
"a 	c #2D2525",
"b 	c #181515",
"c 	c #0A0B0B",
"d 	c #0D0C0C",
"e 	c #0E0D0D",
"f 	c #121111",
"g 	c #191615",
"h 	c #080A0A",
"i 	c #090909",
"j 	c #0C0B0B",
"k 	c #251E1E",
"l 	c #100F0F",
"m 	c #221D1D",
"n 	c #0C0C0C",
"o 	c #060B0B",
"p 	c #050C0C",
"q 	c #0A0C0C",
"r 	c #0E0E0E",
"s 	c #090E0E",
"t 	c #080C0C",
"u 	c #302727",
"v 	c #2D2625",
"w 	c #231E1D",
"x 	c #211C1C",
"y 	c #161514",
"z 	c #111111",
"A 	c #101010",
"B 	c #180D0D",
"C 	c #1E1110",
"D 	c #151111",
"E 	c #0F1010",
"F 	c #141010",
"G 	c #1E1010",
"H 	c #0B0A0A",
"I 	c #0B0B0B",
"J 	c #1E1C1C",
"K 	c #322B2B",
"L 	c #4A3E3B",
"M 	c #312828",
"N 	c #1A1817",
"O 	c #0D0F0F",
"P 	c #0F0F0F",
"Q 	c #0A0E0E",
"R 	c #180E0E",
"S 	c #670F0E",
"T 	c #7D100F",
"U 	c #431211",
"V 	c #001212",
"W 	c #190F0F",
"X 	c #101313",
"Y 	c #171818",
"Z 	c #232121",
"` 	c #3D3735",
" .	c #4F4549",
"..	c #161414",
"+.	c #121212",
"@.	c #111212",
"#.	c #161515",
"$.	c #1A1616",
"%.	c #040D0D",
"&.	c #211010",
"*.	c #8D0F0E",
"=.	c #A90D0B",
"-.	c #5B1110",
";.	c #8C0F0D",
">.	c #221313",
",.	c #111616",
"'.	c #171718",
").	c #1A1A1A",
"!.	c #1F1F1F",
"~.	c #202020",
"{.	c #2A2626",
"].	c #604B47",
"^.	c #101111",
"/.	c #211D1D",
"(.	c #302726",
"_.	c #060E0E",
":.	c #201010",
"<.	c #211111",
"[.	c #070F0F",
"}.	c #191919",
"|.	c #1B1B1B",
"1.	c #1F1E1E",
"2.	c #443A38",
"3.	c #50413F",
"4.	c #221E1D",
"5.	c #131313",
"6.	c #161616",
"7.	c #181919",
"8.	c #292524",
"9.	c #191010",
"0.	c #681110",
"a.	c #431111",
"b.	c #1A1111",
"c.	c #070B0B",
"d.	c #070707",
"e.	c #0A0B0C",
"f.	c #151616",
"g.	c #1D1D1D",
"h.	c #2C2727",
"i.	c #241E1E",
"j.	c #181818",
"k.	c #1D1E1E",
"l.	c #1F1A1A",
"m.	c #1F1212",
"n.	c #161212",
"o.	c #1B1111",
"p.	c #171413",
"q.	c #221C1C",
"r.	c #262221",
"s.	c #221F1F",
"t.	c #2C2827",
"u.	c #4F4240",
"v.	c #141414",
"w.	c #1B1C1C",
"x.	c #1E1919",
"y.	c #080D0D",
"z.	c #0C1212",
"A.	c #0B0F0F",
"B.	c #2F2625",
"C.	c #322A2A",
"D.	c #1C1D1D",
"E.	c #2B2727",
"F.	c #322C2B",
"G.	c #262323",
"H.	c #201A1A",
"I.	c #060808",
"J.	c #0E0C0C",
"K.	c #322D2C",
"L.	c #2B2525",
"M.	c #1B1A1A",
"N.	c #151515",
"O.	c #2B2323",
"P.	c #151212",
"Q.	c #0A0A0A",
"R.	c #292423",
"S.	c #1C1B1B",
"T.	c #2F2626",
"U.	c #100E0E",
"V.	c #282323",
"W.	c #1C1918",
"X.	c #2B2625",
"Y.	c #040606",
"Z.	c #060707",
"`.	c #231E1E",
" +	c #2B2827",
".+	c #1F1A19",
"++	c #211B1A",
"@+	c #252121",
"#+	c #251F1F",
"$+	c #171717",
"%+	c #262222",
"&+	c #1D1C1C",
"*+	c #191A1A",
"=+	c #212020",
"-+	c #514548",
";+	c #262020",
">+	c #1E1E1E",
",+	c #2A2424",
"'+	c #211F1E",
")+	c #151414",
"!+	c #131414",
"~+	c #312F2E",
"{+	c #282423",
"]+	c #2F2828",
"^+	c #272322",
"/+	c #121313",
"(+	c #1A1919",
"_+	c #272323",
":+	c #181A1A",
"<+	c #1D1B1B",
"[+	c #282424",
"}+	c #222020",
"|+	c #5E4A47",
"1+	c #4A4248",
"2+	c #202121",
"3+	c #272525",
"4+	c #5F4B47",
"          .   + @ # # # @ +   .         .   + $ # # # # # # # # # $ % $ # # # @ +   .   & & * * ",
"    = - ; > + , ' # # # ' , + > ) + + ) > + , ' # # # # # # # # # ' ! ' # # # ' , + > ~ { ] ^ @ ",
". = ) / ( ! $ ' # # # # # ' $ ! $ $ $ $ ! $ ' # # # # # # # # # # # # # # # # # ' $ $ ' # # # # ",
"  - , ' # # # # # # # # # # # # # # # # # # # # # # # # # # # # # # # # # # # # # # # # # _ : < ",
"+ / [ # # # # # # # # # # # # # # # # # # # # # # # # # # # # # # # # # # # # # # # # # # } | | ",
"$ ' # # # # # # # # # # # # # # # # # # # # # # # # # # # # # # # # # # # # # # # # # # 1 | | | ",
"# # # # # # # # # # # # # # # # # # # # # # # # # # # # # # # # # # # # # # # # # # # # 2 | | | ",
"# # # # # # # # # # # # # # # # # # # # # # # # # # # # # # # # # # # # # # # # # # # # 2 | | | ",
"# # # # # # # # # # # # # # # # # # # # # # # # # # # # # # # # # # # # # # # # # # # # 1 | | | ",
"# # # # # # # # # # # # # # # # # # # # # 3 4 # # 4 3 # # # # # # # # # # # # # # # # # 1 | | | ",
"# # # # # # # # # # # # # # # # # # # # 5 6 7 # # 7 6 5 # # # # # # # # # # # # # # # # 1 | | | ",
"# # # # # # # # # # # # # # # # # # # 5 8 9 ! # # ! 9 0 $ # # # # # # # # # # # # # # # 1 | | | ",
"$ ' # # # # # # # # # # # # # # # # a b c d 7 # # 7 e f $ # # # # # # # # # # # # # # # 1 | | | ",
"% ! # # # # # # # # # # # # # # $ 5 g h i j k 7 7 k j l $ # # # # # # # # # # # # # # # 1 | | | ",
"$ ' # # # # # # # # # # # # # m 8 8 n o p q e r s t i d u # # # # # # # # # # # # # # # 1 | | | ",
"# # # # # # # # # # # # v w x y z A n B C D E F G B H I J K # # # # # # # # # # # # # # L | | | ",
"# # # # # # # # # # # M N O E E P Q R S T U V U T S W X Y Z [ 4 # # # # # # # # # # # # `  .| | ",
"# # # # # # # # # # M ..+.@.#.x $.%.&.*.=.-.V -.=.;.>.,.'.).!.~.{.# # # # # # # # # # # # ]. .| ",
"@ ' # # # # # # # v N +.+.^./.# (._.:.*.=.-.V -.=.*.<.[.r z }.|.1.{.# # # # # # # # # # # # 2.3.",
"+ , ' # # # # # # 4.O 5.6.7.8.# ! t 9.0.T a.V a.T 0.b.c.d.e.f.}.).g.h.# # # # # # # # # # # # # ",
"  + $ # # # # # # i.E 5.j.k./ # # l.0 b.m.n.@.n.m.o.l n p.q.r.s.).).g.t.# # # # # # # # # # 2.u.",
". > ! # # # # # # i.E +.v.w./ # # # x.y.z.@.+.@.z.A.I d B.# # C.|.).D.E.# # # # # # # # # | | | ",
". > F.# # # # # # 4.O +.+.}.G.' # # H.I.r r r r r n i J.K.# # L.M.).D.E.# # # # # # # # # | | | ",
". > ! # # # # # # v N +.+.N.|.& # # O.P.Q.Q.Q.Q.Q.Q.i d ! # R.}.).).D.E.# # # # # # # # # | | | ",
"  + $ # # # # # # # M ..+.5.N.S.' # # T.9 Q.Q.Q.Q.Q.Q.U.$ # V.7.).).D.E.# # # # # # # # # # 2.u.",
"+ , ' # # # # # # # # M W.^.+.6.X.# # # T.P.Y.Z.Z.Y.P.T.# # V.7.).).w.E.# # # # # # # # # # # # ",
"$ ' # # # # # # # # # # `.E +.5.|. +# # # O..+++++.+O.# # # @+7.).|.Z F.# # # # # # # # # # 2.3.",
"# # # # # # # # # # # # #+z +.+.$+!. +# # # # # # # # # # %+&+*+|.=+[ # # # # # # # # # # -+| | ",
"# # # # # # # # # # # # # ;+z @.v.Y >+4 # # # # # # # # ,+*+}.7.'+@ # # # # # # # # # # ` | | | ",
"# # # # # # # # # # # # # # m )+z !+M.~+# # # # # # # {+}.).|.'+]+# # # # # # # # # # # L | | | ",
"# # # # # # # # # # # # # # # m z 5.).~+# # # # # # # ^+7.|.=+@ # # # # # # # # # # # # L | | | ",
"# # # # # # # # # # # # # # # # ;+/+(+~+# # # # # # # _+:+Z [ # # # # # # # # # # # # # 2.| | | ",
"# # # # # # # # # # # # # # # # # `.<+~+# # # # # # # [+}+F.# # # # # # # # # # # # # # # -+| | ",
"$ ' # # # # # # # # # # # # # # # # ^+~+# # # # # # # t.@ # # # # # # # # # # # # # # # # # 2.L ",
"+ , ' # # # # # # # # # # # # # # # # # # # # # # # # # # # # # # # # # # # # # # # # # # # # # ",
"  + $ # # # # # # # # # # # # # # # # # # # # # # # # # # # # # # # # # # # # # # # # # # # # # ",
". > ! # # # # # # # # # # # # # # # # # # # # # # # # # # # # # # # # # # # # # # # # # # # # # ",
"  ) $ # # # # # # # # # # # # # # # # # # # # # # # # # # # # # # # # # # # # # # # # # # # # # ",
"  + $ # # # # # # # # # # # # # # # # # # # # # # # # # # # # # # # # # # # # # # # # # # # 2.L ",
"  ) $ # # # # # # # # # # # # # # # # # # # # # # # # # # # # # # # # # # # # # # # # # # |+1+| ",
". ; ! # # # # # # # # # # # # # # # # # # # # # # # # # # # # # # # # # # # # # # # # # 2.1+| | ",
"2+3+F.# # # # # # # # # # # # # # # # # # # # # # # # # # # # # # # # # # # # # # # # # L | | | ",
"* + $ # # # # # # # # # # # # # # # # # # # # # # # # # # # # # # # # # # # # # # # # # 2 | | | ",
"~+# # # # # # # # # # # # # # # # # # # # # # # # # # # # # # # # # # # # # # # # # # # 4+| | | ",
"# # # # 2.L L 2.# # # # # # # # # # # # # # ` L 1 1 1 1 1 1 L ` # # # # # ` L 1 1 1 3.4+1+| | | ",
"| | | | | | | | | # # # # # # | | | # # # | | | | | | | | | | | | # # # |+1+| | | | | | | | | | ",
"| | | | | | | | | 2.# # # # 2.| | | 2.# 2.| | | | | | | | | | | | 2.# 2.1+| | | | | | | | | | | ",
"| | | | | | | | | L # # # # 2 | | | 2 # 3.| | | | | | | | | | | | 3.# 3.| | | | | | | | | | | | "};
