/* XPM */
static char * bat0448_xpm[] = {
"48 48 189 2",
"  	c #222222",
". 	c #212222",
"+ 	c #292626",
"@ 	c #322E2D",
"# 	c #2E2F2F",
"$ 	c #322D2D",
"% 	c #2F2A2A",
"& 	c #232222",
"* 	c #232322",
"= 	c #242323",
"- 	c #262525",
"; 	c #282525",
"> 	c #282625",
", 	c #2E2929",
"' 	c #312F2F",
") 	c #282626",
"! 	c #322C2C",
"~ 	c #2A2726",
"{ 	c #2E2928",
"] 	c #312B2A",
"^ 	c #322E2C",
"/ 	c #2D2929",
"( 	c #312B2B",
"_ 	c #363332",
": 	c #454048",
"< 	c #322E2E",
"[ 	c #4A3E3C",
"} 	c #50423F",
"| 	c #231E1D",
"1 	c #211C1C",
"2 	c #141212",
"3 	c #251F1F",
"4 	c #0C0C0C",
"5 	c #0D0C0C",
"6 	c #0E0D0D",
"7 	c #101111",
"8 	c #0D0D0D",
"9 	c #090A0A",
"0 	c #2F2625",
"a 	c #121111",
"b 	c #2D2625",
"c 	c #201C1B",
"d 	c #121010",
"e 	c #0A0A0A",
"f 	c #0B0B0B",
"g 	c #181414",
"h 	c #201B1A",
"i 	c #0F0E0D",
"j 	c #322B2A",
"k 	c #0C0E0F",
"l 	c #0E0F0F",
"m 	c #0A0B0B",
"n 	c #000C0C",
"o 	c #000E0E",
"p 	c #080E0E",
"q 	c #040C0C",
"r 	c #000B0B",
"s 	c #080909",
"t 	c #0C0B0B",
"u 	c #262020",
"v 	c #0F1010",
"w 	c #120D0D",
"x 	c #420E0E",
"y 	c #511111",
"z 	c #2C1212",
"A 	c #071212",
"B 	c #110C0C",
"C 	c #0D0E0E",
"D 	c #141414",
"E 	c #282323",
"F 	c #221D1D",
"G 	c #161414",
"H 	c #060D0D",
"I 	c #1E1010",
"J 	c #800F0E",
"K 	c #9B0E0C",
"L 	c #531111",
"M 	c #001212",
"N 	c #800F0D",
"O 	c #1F1212",
"P 	c #121616",
"Q 	c #171818",
"R 	c #272322",
"S 	c #4A3E3B",
"T 	c #111111",
"U 	c #0E0E0E",
"V 	c #030C0C",
"W 	c #211111",
"X 	c #900F0D",
"Y 	c #AD0D0A",
"Z 	c #5D1110",
"` 	c #221212",
" .	c #0D1414",
"..	c #161616",
"+.	c #221F1F",
"@.	c #3D3735",
"#.	c #121212",
"$.	c #81100F",
"%.	c #1E1111",
"&.	c #131313",
"*.	c #1B1B1B",
"=.	c #212020",
"-.	c #231E1E",
";.	c #100F0F",
">.	c #151111",
",.	c #431211",
"'.	c #141010",
").	c #0B0C0C",
"!.	c #1A1A1A",
"~.	c #232121",
"{.	c #322C2B",
"].	c #443A38",
"^.	c #50413F",
"/.	c #241E1E",
"(.	c #272120",
"_.	c #2E2625",
":.	c #1A1616",
"<.	c #000F10",
"[.	c #0D1212",
"}.	c #131212",
"|.	c #001011",
"1.	c #1A1B1B",
"2.	c #161515",
"3.	c #312E2E",
"4.	c #090B0B",
"5.	c #1B1C1C",
"6.	c #222121",
"7.	c #4F4240",
"8.	c #191919",
"9.	c #221C1C",
"0.	c #09090A",
"a.	c #2F2F2F",
"b.	c #221E1D",
"c.	c #0D0F0F",
"d.	c #1B1A1A",
"e.	c #231D1D",
"f.	c #090909",
"g.	c #070808",
"h.	c #1D1D1D",
"i.	c #1A1817",
"j.	c #191818",
"k.	c #322A2A",
"l.	c #1F1919",
"m.	c #0F0D0D",
"n.	c #100E0E",
"o.	c #1E1818",
"p.	c #1E1B1B",
"q.	c #1E1D1D",
"r.	c #272222",
"s.	c #302827",
"t.	c #141313",
"u.	c #2F2828",
"v.	c #0B0A0A",
"w.	c #0E0C0C",
"x.	c #1C1C1C",
"y.	c #292525",
"z.	c #121313",
"A.	c #1D1B1A",
"B.	c #312928",
"C.	c #312F2E",
"D.	c #2C2625",
"E.	c #2B2727",
"F.	c #151414",
"G.	c #111112",
"H.	c #262221",
"I.	c #191A1A",
"J.	c #4F4140",
"K.	c #262222",
"L.	c #1C1C1B",
"M.	c #2A2424",
"N.	c #1C1B1A",
"O.	c #292423",
"P.	c #232120",
"Q.	c #56494C",
"R.	c #1A1919",
"S.	c #181919",
"T.	c #1D1C1C",
"U.	c #181A1A",
"V.	c #221E1E",
"W.	c #1C1A1A",
"X.	c #292424",
"Y.	c #222020",
"Z.	c #241F1F",
"`.	c #2D2827",
" +	c #584847",
".+	c #202121",
"++	c #272525",
"@+	c #5B4947",
"#+	c #514548",
"          .   + @ # # # @ +   .         .   + $ # # # # # # # # # $ % $ # # # @ +   .   & & * * ",
"    = - ; > + , ' # # # ' , + > ) + + ) > + , ' # # # # # # # # # ' ! ' # # # ' , + > ~ { ] ^ @ ",
". = ) / ( ! $ ' # # # # # ' $ ! $ $ $ $ ! $ ' # # # # # # # # # # # # # # # # # ' $ $ ' # # # # ",
"  - , ' # # # # # # # # # # # # # # # # # # # # # # # # # # # # # # # # # # # # # # # # # _ : : ",
"+ / < # # # # # # # # # # # # # # # # # # # # # # # # # # # # # # # # # # # # # # # # # # : : : ",
"$ ' # # # # # # # # # # # # # # # # # # # # # # # # # # # # # # # # # # # # # # # # # # [ : : : ",
"# # # # # # # # # # # # # # # # # # # # # # # # # # # # # # # # # # # # # # # # # # # # } : : : ",
"# # # # # # # # # # # # # # # # # # # # # # # # # # # # # # # # # # # # # # # # # # # # } : : : ",
"# # # # # # # # # # # # # # # # # # # # # | ! # # ! | # # # # # # # # # # # # # # # # # [ : : : ",
"# # # # # # # # # # # # # # # # # # # # 1 2 ! # # ! 2 1 # # # # # # # # # # # # # # # # [ : : : ",
"# # # # # # # # # # # # # # # # # # # 3 4 5 ! # # ! 6 7 ! # # # # # # # # # # # # # # # [ : : : ",
"# # # # # # # # # # # # # # # # # # 1 8 9 5 0 # # 0 8 a $ # # # # # # # # # # # # # # # [ : : : ",
"$ ' # # # # # # # # # # # # # b | c d e e f g h h g e i j # # # # # # # # # # # # # # # [ : : : ",
"% ! # # # # # # # # # # # # # | k l m n o p 6 q n r s t u # # # # # # # # # # # # # # # [ : : : ",
"$ ' # # # # # # # # # # # # # 1 v v w x y z A z y x B C D E # # # # # # # # # # # # # # [ : : : ",
"# # # # # # # # # # # # # # F G l H I J K L M L K N O P Q R # # # # # # # # # # # # # # S : : : ",
"# # # # # # # # # # # # # u T T U V W X Y Z M Z Y X `  ...+.@ # # # # # # # # # # # # # @.: : : ",
"# # # # # # # # # # # # 3 T #.#.U q I $.K L M L K $.%.H &.*.=.< # # # # # # # # # # # # # : : : ",
"@ ' # # # # # # # # # # -.v #.#.;.C >.,.y z A z y ,.'.).&.!.*.~.{.# # # # # # # # # # # # # ].^.",
"+ , ' # # # # # # # # # /.v #.&.(._.:.<.M [.}.[.M |.C t &.!.!.1.~.< # # # # # # # # # # # # # # ",
"  + $ # # # # # # # # # /.v #.2.3.# h 4.T T T T T U e e &.!.!.!.5.6.# # # # # # # # # # # # ].7.",
". > ! # # # # # # # # # /.v &.8.' # 9.0.4 4 4 4 4 f e e &.!.!.!.*.=.a.# # # # # # # # # # : : : ",
". > {.# # # # # # # # # b.c.&.d.a.# a.e.s s e e e e f.g.#.!.!.!.!.h.' # # # # # # # # # # : : : ",
". > ! # # # # # # # # # b i.&.j.k.# # a.l.m.s f.f.s n.o.p.!.!.1.q.r.# # # # # # # # # # # : : : ",
"  + $ # # # # # # # # # # s.t.&.p.u.# # # l.v.w.w.v.l.# k.*.!.x.y.# # # # # # # # # # # # # ].7.",
"+ , ' # # # # # # # # # # $ #.T z.A.B.# # # j ! ! ! $ C.D.d.!.5.E.# # # # # # # # # # # # # # # ",
"$ ' # # # # # # # # # # # # F F.G.#.G B.# # # # # # # H.I.!.*.~.{.# # # # # # # # # # # # # ].J.",
"# # # # # # # # # # # # # # # F T #.#.A.u.# # # # # K.L.I.*.=.< # # # # # # # # # # # # # : : : ",
"# # # # # # # # # # # # # # # # u T G.z.p.k.# # # M.I.I.1.~.< # # # # # # # # # # # # # @.: : : ",
"# # # # # # # # # # # # # # # # # F F.T D N.a.# O.8.!.!.P.{.# # # # # # # # # # # # # # S : : Q.",
"# # # # # # # # # # # # # # # # # # F T &.R.' # E S.!.T.! # # # # # # # # # # # # # # # S : : Q.",
"# # # # # # # # # # # # # # # # # # # u z.R.' # E U.P.! # # # # # # # # # # # # # # # # ].: : : ",
"# # # # # # # # # # # # # # # # # # # # V.W.C.# X.Y.{.# # # # # # # # # # # # # # # # # # : : : ",
"$ ' # # # # # # # # # # # # # # # # # # # Z.3.# `.@ # # # # # # # # # # # # # # # # # # # # ].S ",
"+ , ' # # # # # # # # # # # # # # # # # # # # # # # # # # # # # # # # # # # # # # # # # # # # # ",
"  + $ # # # # # # # # # # # # # # # # # # # # # # # # # # # # # # # # # # # # # # # # # # # # # ",
". > ! # # # # # # # # # # # # # # # # # # # # # # # # # # # # # # # # # # # # # # # # # # # # # ",
"  ) $ # # # # # # # # # # # # # # # # # # # # # # # # # # # # # # # # # # # # # # # # # # # # # ",
"  + $ # # # # # # # # # # # # # # # # # # # # # # # # # # # # # # # # # # # # # # # # # # # ].S ",
"  ) $ # # # # # # # # # # # # # # # # # # # # # # # # # # # # # # # # # # # # # # # # # #  +: : ",
". ; ! # # # # # # # # # # # # # # # # # # # # # # # # # # # # # # # # # # # # # # # # # ].: : : ",
".+++{.# # # # # # # # # # # # # # # # # # # # # # # # # # # # # # # # # # # # # # # # # S : : : ",
"* + $ # # # # # # # # # # # # # # # # # # # # # # # # # # # # # # # # # # # # # # # # # } : : : ",
"C.# # # # # # # # # # # # # # # # # # # # # # # # # # # # # # # # # # # # # # # # # # # @+: : : ",
"# # # # ].S S ].# # # # # # # # # # # # # # @.S [ [ [ [ [ [ S @.# # # # # @.S [ [ [ ^.@+: : : : ",
": : : : : : : : #+# # # # # # : : : # # # : : : : : : : : : : : : # # #  +: : : : : : : : : : : ",
": : : : : : : : : ].# # # # ].: : : ].# ].: : : : : : : : : : : : ].# ].: : : : : : : : : : : : ",
": : : : : : : : : S # # # # } : : : } # ^.: : : : : : : : : : : : ^.# ^.: : : : : : : : : : : : "};
