/* XPM */
static char * bat0548_xpm[] = {
"48 48 206 2",
"  	c #222222",
". 	c #212222",
"+ 	c #292626",
"@ 	c #322E2D",
"# 	c #2E2F2F",
"$ 	c #322D2D",
"% 	c #2F2A2A",
"& 	c #232222",
"* 	c #232322",
"= 	c #242323",
"- 	c #262525",
"; 	c #282525",
"> 	c #282625",
", 	c #2E2929",
"' 	c #312F2F",
") 	c #282626",
"! 	c #322C2C",
"~ 	c #2A2726",
"{ 	c #2E2928",
"] 	c #312B2A",
"^ 	c #322E2C",
"/ 	c #2D2929",
"( 	c #312B2B",
"_ 	c #363332",
": 	c #604B46",
"< 	c #574748",
"[ 	c #322E2E",
"} 	c #574849",
"| 	c #454048",
"1 	c #4A3E3C",
"2 	c #50423F",
"3 	c #2E2626",
"4 	c #2F2F2F",
"5 	c #302827",
"6 	c #1A1717",
"7 	c #322B2A",
"8 	c #131212",
"9 	c #0F0E0E",
"0 	c #141313",
"a 	c #2C2423",
"b 	c #211C1C",
"c 	c #231E1E",
"d 	c #251F1F",
"e 	c #2D2625",
"f 	c #181515",
"g 	c #0A0B0B",
"h 	c #0D0C0C",
"i 	c #0E0D0D",
"j 	c #121111",
"k 	c #302727",
"l 	c #181615",
"m 	c #0B0D0D",
"n 	c #0E0F0F",
"o 	c #121212",
"p 	c #312E2E",
"q 	c #221C1C",
"r 	c #060808",
"s 	c #090909",
"t 	c #0C0B0B",
"u 	c #251E1E",
"v 	c #0C0C0C",
"w 	c #282221",
"x 	c #312F2E",
"y 	c #131313",
"z 	c #151515",
"A 	c #151414",
"B 	c #312928",
"C 	c #1E1919",
"D 	c #030909",
"E 	c #050C0C",
"F 	c #0A0C0C",
"G 	c #0E0E0E",
"H 	c #090E0E",
"I 	c #080C0C",
"J 	c #0A0A0A",
"K 	c #0B0B0B",
"L 	c #141414",
"M 	c #1B1B1B",
"N 	c #1C1B1B",
"O 	c #1D1C1C",
"P 	c #20201F",
"Q 	c #202020",
"R 	c #2A2626",
"S 	c #2D2525",
"T 	c #181818",
"U 	c #1E1E1E",
"V 	c #201F1F",
"W 	c #171616",
"X 	c #1C1919",
"Y 	c #201B1B",
"Z 	c #121010",
"` 	c #180D0D",
" .	c #1E1110",
"..	c #151111",
"+.	c #0F1010",
"@.	c #141010",
"#.	c #1E1010",
"$.	c #0B0A0A",
"%.	c #191A1A",
"&.	c #1A1A1A",
"*.	c #1F1E1E",
"=.	c #4A3E3B",
"-.	c #232121",
";.	c #131414",
">.	c #080D0D",
",.	c #180E0E",
"'.	c #670F0E",
").	c #7D100F",
"!.	c #431211",
"~.	c #001212",
"{.	c #190F0F",
"].	c #101313",
"^.	c #171717",
"/.	c #1C1C1C",
"(.	c #1D1D1D",
"_.	c #2C2727",
":.	c #3D3735",
"<.	c #4F4549",
"[.	c #111111",
"}.	c #1F1D1D",
"|.	c #050D0D",
"1.	c #211010",
"2.	c #8D0F0E",
"3.	c #A90D0B",
"4.	c #5B1110",
"5.	c #8C0F0D",
"6.	c #221313",
"7.	c #111616",
"8.	c #1E1D1D",
"9.	c #604B47",
"0.	c #191615",
"a.	c #232323",
"b.	c #060E0E",
"c.	c #201010",
"d.	c #211111",
"e.	c #070F0F",
"f.	c #0B0C0C",
"g.	c #252525",
"h.	c #443A38",
"i.	c #50413F",
"j.	c #1E1F1F",
"k.	c #2D2827",
"l.	c #191010",
"m.	c #681110",
"n.	c #431111",
"o.	c #1A1111",
"p.	c #070B0B",
"q.	c #030505",
"r.	c #201A1A",
"s.	c #282727",
"t.	c #191919",
"u.	c #0C0E0E",
"v.	c #212121",
"w.	c #2B2727",
"x.	c #1F1A1A",
"y.	c #151313",
"z.	c #1F1212",
"A.	c #161212",
"B.	c #111212",
"C.	c #1B1111",
"D.	c #100F0F",
"E.	c #2A2222",
"F.	c #1F1F1F",
"G.	c #212120",
"H.	c #0C1212",
"I.	c #0B0F0F",
"J.	c #2F2626",
"K.	c #322F2E",
"L.	c #212020",
"M.	c #322C2B",
"N.	c #0E0C0C",
"O.	c #2C2828",
"P.	c #202121",
"Q.	c #242424",
"R.	c #282828",
"S.	c #262626",
"T.	c #222323",
"U.	c #2B2323",
"V.	c #2A2625",
"W.	c #292929",
"X.	c #262222",
"Y.	c #1F2020",
"Z.	c #100E0E",
"`.	c #322D2C",
" +	c #302C2C",
".+	c #272828",
"++	c #292625",
"@+	c #2E2A29",
"#+	c #151212",
"$+	c #040606",
"%+	c #060707",
"&+	c #1C1D1D",
"*+	c #1A1817",
"=+	c #1F1A19",
"-+	c #211B1A",
";+	c #1D1E1E",
">+	c #312828",
",+	c #161515",
"'+	c #2B2827",
")+	c #101111",
"!+	c #151616",
"~+	c #221D1D",
"{+	c #241F1F",
"]+	c #272222",
"^+	c #272525",
"/+	c #554647",
"          .   + @ # # # @ +   .         .   + $ # # # # # # # # # $ % $ # # # @ +   .   & & * * ",
"    = - ; > + , ' # # # ' , + > ) + + ) > + , ' # # # # # # # # # ' ! ' # # # ' , + > ~ { ] ^ @ ",
". = ) / ( ! $ ' # # # # # ' $ ! $ $ $ $ ! $ ' # # # # # # # # # # # # # # # # # ' $ $ ' # # # # ",
"  - , ' # # # # # # # # # # # # # # # # # # # # # # # # # # # # # # # # # # # # # # # # # _ : < ",
"+ / [ # # # # # # # # # # # # # # # # # # # # # # # # # # # # # # # # # # # # # # # # # # } | | ",
"$ ' # # # # # # # # # # # # # # # # # # # # # # # # # # # # # # # # # # # # # # # # # # 1 | | | ",
"# # # # # # # # # # # # # # # # # # # # # # # # # # # # # # # # # # # # # # # # # # # # 2 | | | ",
"# # # # # # # # # # # # # # # # # # # # # # # # # # # # # # # # # # # # # # # # # # # # 2 | | | ",
"# # # # # # # # # # # # # # # # # # # # # # # # # # # # # # # # # # # # # # # # # # # # 1 | | | ",
"# # # # # # # # # # # # # # # # # # # # # 3 4 # # 4 3 # # # # # # # # # # # # # # # # # 1 | | | ",
"# # # # # # # # # # # # # # # # # # # # 5 6 7 # # 7 6 5 # # # # # # # # # # # # # # # # 1 | | | ",
"# # # # # # # # # # # # # # # # # # # 5 8 9 ! # # ! 9 0 $ # # # # # # # # # # # # # # # 1 | | | ",
"$ ' # # # # # # # # # # a b c d # # e f g h 7 # # 7 i j ! # # # # # # # # # # # # # # # 1 | | | ",
"% ! # # # # # # # # # k l m n o p # q r s t u 7 7 u v 9 w p x x ' 4 4 # # # # # # # # # 1 | | | ",
"$ ' # # # # # # # # k 8 y z z A B # C D E F i G H I J K L M N M O P Q R # # # # # # # # 1 | | | ",
"# # # # # # # # # S 6 y T U V W X Y Z `  ...+.@.#.` $.K y %.&.&.&.M M *.R # # # # # # # =.| | | ",
"# # # # # # # # k 6 +.z U % [ -.;.>.,.'.).!.~.!.).'.{.].^./.Q U &.&.&.&.(._.# # # # # # :.<.| | ",
"# # # # # # # k 8 [.o ^.& # # $ }.|.1.2.3.4.~.4.3.5.6.7.^.8./ + (.M &.&.&.(.R # # # # # # 9.<.| ",
"@ ' # # # # a 0.[.o z M a.# # # 5 b.c.2.3.4.~.4.3.2.d.e.f.Y # 4 g.(.&.&.&.&.*.R # # # # # # h.i.",
"+ , ' # # # Y F o o &.j.8.k.# # ! I l.m.).n.~.n.).m.o.p.q.r.# # s.(.t.&.&.&.M Q 4 # # # # # # # ",
"  + $ # # # q u.o y (.v.&./.w.# $ x.y.o.z.A.B.A.z.C.D.v A.E.# 4 - F.M &.&.&.M G.4 # # # # # h.2 ",
". > ! # # # q u.o y /.a.  /.N w.# # C >.H.B.o B.H.I.K h J.# K.) Q g.v.M &.&.M L.4 # # # # | | | ",
". > M.# # # Y F o o t.Q a.Q -.[ # # r.r G G G G G v s N.$ # O.P.Q.R.S.v./.&.&.(.' # # # # | | | ",
". > ! # # # a 0.[.o z M v.T./ # # # U.A.J J J J J J s h ! # V.T.W.W.R.Q.(.&.8.X.# # # # # | | | ",
"  + $ # # # # k 8 [.y z M Y./ # # # # J.9 J J J J J J Z.`.#  +.+W.W.Q.(.M (.++# # # # # # # h.2 ",
"+ , ' # # # # # k 6 +.y t.j.@+# # # # # J.#+$+%+%+$+#+J.# # # K.R.a.U &.&+_.# # # # # # # # # # ",
"$ ' # # # # # # # S *+y T (.w.# # # # # # U.=+-+-+=+U.# # # # ' g.;+M *.R # # # # # # # # # h.i.",
"# # # # # # # # # # >+,+L T V '+# # # # # # # # # # # # # # ' + V Q Q R # # # # # # # # # 9.<.| ",
"# # # # # # # # # # # >+*+)+!+&+O.# # # # # # # # # # # # # # 4 x 4 4 # # # # # # # # # :.<.| | ",
"# # # # # # # # # # # # e ~+{+]+R [ # # # # # # # # # # # # # # # # # # # # # # # # # # =.| | | ",
"# # # # # # # # # # # # # # # # # # # # # # # # # # # # # # # # # # # # # # # # # # # # =.| | | ",
"# # # # # # # # # # # # # # # # # # # # # # # # # # # # # # # # # # # # # # # # # # # # h.<.| | ",
"# # # # # # # # # # # # # # # # # # # # # # # # # # # # # # # # # # # # # # # # # # # # # 9.<.| ",
"$ ' # # # # # # # # # # # # # # # # # # # # # # # # # # # # # # # # # # # # # # # # # # # # h.=.",
"+ , ' # # # # # # # # # # # # # # # # # # # # # # # # # # # # # # # # # # # # # # # # # # # # # ",
"  + $ # # # # # # # # # # # # # # # # # # # # # # # # # # # # # # # # # # # # # # # # # # # # # ",
". > ! # # # # # # # # # # # # # # # # # # # # # # # # # # # # # # # # # # # # # # # # # # # # # ",
"  ) $ # # # # # # # # # # # # # # # # # # # # # # # # # # # # # # # # # # # # # # # # # # # # # ",
"  + $ # # # # # # # # # # # # # # # # # # # # # # # # # # # # # # # # # # # # # # # # # # # h.=.",
"  ) $ # # # # # # # # # # # # # # # # # # # # # # # # # # # # # # # # # # # # # # # # # # | | | ",
". ; ! # # # # # # # # # # # # # # # # # # # # # # # # # # # # # # # # # # # # # # # # # h.| | | ",
"P.^+M.# # # # # # # # # # # # # # # # # # # # # # # # # # # # # # # # # # # # # # # # # =.| | | ",
"* + $ # # # # # # # # # # # # # # # # # # # # # # # # # # # # # # # # # # # # # # # # # 2 | | | ",
"x # # # # # # # # # # # # # # # # # # # # # # # # # # # # # # # # # # # # # # # # # # # | | | | ",
"# # # # h.=.=.h.# # # # # # # # # # # # # # :.=.1 1 1 1 1 1 =.:.# # # # # :.=.1 1 1 i.| | | | | ",
"| | | | | | | | /+# # # # # # | | | # # # /+| | | | | | | | | | /+# # # | | | | | | | | | | | | ",
"| | | | | | | | | h.# # # # h.| | | h.# h.| | | | | | | | | | | | h.# h.| | | | | | | | | | | | ",
"| | | | | | | | | =.# # # # 2 | | | 2 # i.| | | | | | | | | | | | i.# i.| | | | | | | | | | | | "};
