/* XPM */
static char * bat0648_xpm[] = {
"48 48 221 2",
"  	c #222222",
". 	c #212222",
"+ 	c #292626",
"@ 	c #322E2D",
"# 	c #2E2F2F",
"$ 	c #322D2D",
"% 	c #2F2A2A",
"& 	c #232222",
"* 	c #232322",
"= 	c #242323",
"- 	c #262525",
"; 	c #282525",
"> 	c #282625",
", 	c #2E2929",
"' 	c #312F2F",
") 	c #282626",
"! 	c #322C2C",
"~ 	c #2A2726",
"{ 	c #2E2928",
"] 	c #312B2A",
"^ 	c #322E2C",
"/ 	c #2D2929",
"( 	c #312B2B",
"_ 	c #363332",
": 	c #554647",
"< 	c #454048",
"[ 	c #322E2E",
"} 	c #4A3E3C",
"| 	c #50423F",
"1 	c #312F2E",
"2 	c #322A29",
"3 	c #1B1A1A",
"4 	c #322B2A",
"5 	c #2C2423",
"6 	c #1A1717",
"7 	c #131313",
"8 	c #141414",
"9 	c #1F1C1C",
"0 	c #272222",
"a 	c #282323",
"b 	c #2E2626",
"c 	c #2F2F2F",
"d 	c #302727",
"e 	c #191616",
"f 	c #0E0F0F",
"g 	c #121212",
"h 	c #141515",
"i 	c #151616",
"j 	c #292323",
"k 	c #302827",
"l 	c #2F2726",
"m 	c #131212",
"n 	c #111111",
"o 	c #151515",
"p 	c #252121",
"q 	c #0F0E0E",
"r 	c #141313",
"s 	c #2A2625",
"t 	c #1F1F1F",
"u 	c #272120",
"v 	c #181717",
"w 	c #2D2625",
"x 	c #181515",
"y 	c #0A0B0B",
"z 	c #0D0C0C",
"A 	c #0E0D0D",
"B 	c #121111",
"C 	c #292424",
"D 	c #2A2626",
"E 	c #2A2525",
"F 	c #262221",
"G 	c #1E1D1D",
"H 	c #1A1B1B",
"I 	c #292525",
"J 	c #322C2B",
"K 	c #312A2A",
"L 	c #0C0D0D",
"M 	c #111212",
"N 	c #161616",
"O 	c #221C1C",
"P 	c #060808",
"Q 	c #090909",
"R 	c #0C0B0B",
"S 	c #251E1E",
"T 	c #0C0C0C",
"U 	c #282221",
"V 	c #312E2E",
"W 	c #2A2524",
"X 	c #1A1A1A",
"Y 	c #1B1C1C",
"Z 	c #191919",
"` 	c #191A1A",
" .	c #2B2727",
"..	c #1B1818",
"+.	c #0E0E0E",
"@.	c #171717",
"#.	c #151414",
"$.	c #312928",
"%.	c #1E1919",
"&.	c #030909",
"*.	c #050C0C",
"=.	c #0A0C0C",
"-.	c #090E0E",
";.	c #080C0C",
">.	c #0A0A0A",
",.	c #0B0B0B",
"'.	c #1B1B1B",
").	c #1C1B1B",
"!.	c #1C1C1C",
"~.	c #4A3E3B",
"{.	c #1E1A1A",
"].	c #0D0E0E",
"^.	c #1E1E1E",
"/.	c #1C1919",
"(.	c #201B1B",
"_.	c #121010",
":.	c #180D0D",
"<.	c #1E1110",
"[.	c #151111",
"}.	c #0F1010",
"|.	c #141010",
"1.	c #1E1010",
"2.	c #0B0A0A",
"3.	c #1F1E1E",
"4.	c #1F1B1B",
"5.	c #1D1D1D",
"6.	c #1F2020",
"7.	c #1C1D1D",
"8.	c #080D0D",
"9.	c #180E0E",
"0.	c #670F0E",
"a.	c #7D100F",
"b.	c #431211",
"c.	c #001212",
"d.	c #190F0F",
"e.	c #101313",
"f.	c #212020",
"g.	c #3D3735",
"h.	c #292322",
"i.	c #191717",
"j.	c #212121",
"k.	c #252424",
"l.	c #2C2828",
"m.	c #2D2A29",
"n.	c #201E1D",
"o.	c #050D0D",
"p.	c #211010",
"q.	c #8D0F0E",
"r.	c #A90D0B",
"s.	c #5B1110",
"t.	c #8C0F0D",
"u.	c #221313",
"v.	c #111616",
"w.	c #242424",
"x.	c #282828",
"y.	c #272727",
"z.	c #2E2625",
"A.	c #171515",
"B.	c #181818",
"C.	c #2C2928",
"D.	c #060E0E",
"E.	c #201010",
"F.	c #211111",
"G.	c #070F0F",
"H.	c #0D0D0D",
"I.	c #292929",
"J.	c #202020",
"K.	c #222121",
"L.	c #443A38",
"M.	c #50413F",
"N.	c #312929",
"O.	c #211E1E",
"P.	c #1E1F1F",
"Q.	c #1D1E1E",
"R.	c #2C2727",
"S.	c #191010",
"T.	c #681110",
"U.	c #431111",
"V.	c #1A1111",
"W.	c #070B0B",
"X.	c #040606",
"Y.	c #322F2F",
"Z.	c #262626",
"`.	c #232424",
" +	c #232121",
".+	c #242322",
"++	c #2E2A29",
"@+	c #1F1A1A",
"#+	c #1F1212",
"$+	c #161212",
"%+	c #1B1111",
"&+	c #100F0F",
"*+	c #2B2323",
"=+	c #2E2B2B",
"-+	c #2F2C2C",
";+	c #2A2929",
">+	c #222120",
",+	c #322B2B",
"'+	c #0C1212",
")+	c #0B0F0F",
"!+	c #2F2B2B",
"~+	c #1D1C1C",
"{+	c #201A1A",
"]+	c #0E0C0C",
"^+	c #302D2C",
"/+	c #212323",
"(+	c #242121",
"_+	c #282727",
":+	c #2F2626",
"<+	c #100E0E",
"[+	c #312D2C",
"}+	c #151212",
"|+	c #060707",
"1+	c #1F1A19",
"2+	c #211B1A",
"3+	c #604B47",
"4+	c #4F4549",
"5+	c #202121",
"6+	c #272525",
"7+	c #514548",
"8+	c #4F4240",
"          .   + @ # # # @ +   .         .   + $ # # # # # # # # # $ % $ # # # @ +   .   & & * * ",
"    = - ; > + , ' # # # ' , + > ) + + ) > + , ' # # # # # # # # # ' ! ' # # # ' , + > ~ { ] ^ @ ",
". = ) / ( ! $ ' # # # # # ' $ ! $ $ $ $ ! $ ' # # # # # # # # # # # # # # # # # ' $ $ ' # # # # ",
"  - , ' # # # # # # # # # # # # # # # # # # # # # # # # # # # # # # # # # # # # # # # # # _ : < ",
"+ / [ # # # # # # # # # # # # # # # # # # # # # # # # # # # # # # # # # # # # # # # # # # < < < ",
"$ ' # # # # # # # # # # # # # # # # # # # # # # # # # # # # # # # # # # # # # # # # # # } < < < ",
"# # # # # # # # # # # # # # # # # # # # # # # # # # # # # # # # # # # # # # # # # # # # | < < < ",
"# # # # # # # # 1 1 # # # # # # # # # # # # # # # # # # # # # # # # # # # # # # # # # # | < < < ",
"# # # # # # # 2 3 3 4 # # # # # # # # # # # # # # # # # # # # # # # # # # # # # # # # # } < < < ",
"# # # # # # 5 6 7 8 9 0 a # # # # # # # # b c # # c b # # # # # # # # # # # # # # # # # } < < < ",
"# # # # # d e f g g 7 h i j # # # # # # k 6 4 # # 4 6 k # # # # # # # # # c # # # # # # } < < < ",
"# # # # l m n g g g g g g o p # # # # k m q ! # # ! q r $ # # # # # # # s t s # # # # # } < < < ",
"$ ' [ u e n g g g g g g g g v p # # w x y z 4 # # 4 A B ! # # # C D E F G H G F I J # # } < < < ",
"% $ K e L g g g g n g g g g M N 1 # O P Q R S 4 4 S T q U V 1 W X Y H Z ` X ` Z Y  .# # } < < < ",
"$ ' $ ..+.g g g 7 @.o g g 8 o #.$.# %.&.*.=.A +.-.;.>.,.8 '.).3 X X X X X X X X !.I # # ~.< < < ",
"# # # {.].g g g @.  ^.7 7 '.t N /.(._.:.<.[.}.|.1.:.2.,.7 Z X X X X X X X X X X X 3.D # ~.< < < ",
"# # # 4.].g g @.5.t ^.!.Y 6.  7.h 8.9.0.a.b.c.b.a.0.d.e.@.X X ^.    ^.X X X X X X H f.# g.< < < ",
"# # # h.i.g 8 5.j.@.!.k.l./ m./ n.o.p.q.r.s.c.s.r.t.u.v.v Z 7.w.x.y.  5.'.X X X X '.j.# # : < < ",
"@ ' # # z.A.B.t j.@.!.C.# # # # k D.E.q.r.s.c.s.r.q.F.G.H.o w.I.y.J.  w.5.X X X X '.K.# # # L.M.",
"+ , ' # # N.O.P.. Q.R.# # # # # 4 ;.S.T.a.U.c.U.a.T.V.W.X.e [ Y.Z.5.. y.`.^.X X H  +[ # # # # # ",
"  + $ # # # C .+/ ++# # # # # # c @+r V.#+$+M $+#+%+&+T $+*+# # =+K.) -+;+  X X >+,+# # # # L.| ",
". > ! # # # , [ # # # # # # # # # # %.8.'+M g M '+)+,.z z.# # # # !+' # -+. X ~+,+# # # # < < < ",
". > J # # # # # # # # # # # # # # # {+P +.+.+.+.+.T Q ]+! # # # # # # # ^+/+(+! # # # # # < < < ",
". > ! # # # # # # # # # # # # # # # *+$+>.>.>.>.>.>.Q z J # # # # # # # ' _+l.# # # # # # < < < ",
"  + $ # # # # # # # # # # # # # # # # :+q >.>.>.>.>.>.<+! # # # # # # # # ' [+# # # # # # # L.| ",
"+ , ' # # # # # # # # # # # # # # # # # :+}+X.|+|+X.}+:+# # # # # # # # # # # # # # # # # # # # ",
"$ ' # # # # # # # # # # # # # # # # # # # *+1+2+2+1+*+# # # # # # # # # # # # # # # # # # # L.M.",
"# # # # # # # # # # # # # # # # # # # # # # # # # # # # # # # # # # # # # # # # # # # # # 3+4+< ",
"# # # # # # # # # # # # # # # # # # # # # # # # # # # # # # # # # # # # # # # # # # # # g.4+< < ",
"# # # # # # # # # # # # # # # # # # # # # # # # # # # # # # # # # # # # # # # # # # # # ~.< < < ",
"# # # # # # # # # # # # # # # # # # # # # # # # # # # # # # # # # # # # # # # # # # # # ~.< < < ",
"# # # # # # # # # # # # # # # # # # # # # # # # # # # # # # # # # # # # # # # # # # # # L.4+< < ",
"# # # # # # # # # # # # # # # # # # # # # # # # # # # # # # # # # # # # # # # # # # # # # 3+4+< ",
"$ ' # # # # # # # # # # # # # # # # # # # # # # # # # # # # # # # # # # # # # # # # # # # # L.~.",
"+ , ' # # # # # # # # # # # # # # # # # # # # # # # # # # # # # # # # # # # # # # # # # # # # # ",
"  + $ # # # # # # # # # # # # # # # # # # # # # # # # # # # # # # # # # # # # # # # # # # # # # ",
". > ! # # # # # # # # # # # # # # # # # # # # # # # # # # # # # # # # # # # # # # # # # # # # # ",
"  ) $ # # # # # # # # # # # # # # # # # # # # # # # # # # # # # # # # # # # # # # # # # # # # # ",
"  + $ # # # # # # # # # # # # # # # # # # # # # # # # # # # # # # # # # # # # # # # # # # # L.~.",
"  ) $ # # # # # # # # # # # # # # # # # # # # # # # # # # # # # # # # # # # # # # # # # # < < < ",
". ; ! # # # # # # # # # # # # # # # # # # # # # # # # # # # # # # # # # # # # # # # # # L.< < < ",
"5+6+J # # # # # # # # # # # # # # # # # # # # # # # # # # # # # # # # # # # # # # # # # ~.< < < ",
"* + $ # # # # # # # # # # # # # # # # # # # # # # # # # # # # # # # # # # # # # # # # # | < < < ",
"1 # # # # # # # # # # # # # # # # # # # # # # # # # # # # # # # # # # # # # # # # # # # < < < < ",
"# # # # L.~.~.L.# # # # # # # # # # # # # # g.~.} } } } } } ~.g.# # # # # g.~.} } } M.< < < < < ",
"< < < < < < < < 7+# # # # # # < < < # # # < < < < < < < < < < < < # # # < < < < < < < < < < < < ",
"< < < < < < < < < L.# # # # L.< < < L.# L.< < < < < < < < < < < < L.# L.< < < < < < < < < < < < ",
"< < < < < < < < < ~.# # # # 8+< < < 8+# M.< < < < < < < < < < < < M.# M.< < < < < < < < < < < < "};
