/* XPM */
static char * coll48_xpm[] = {
"48 48 48 1",
" 	c #222222",
".	c #212222",
"+	c #292626",
"@	c #322E2D",
"#	c #2E2F2F",
"$	c #322D2D",
"%	c #2F2A2A",
"&	c #232222",
"*	c #232322",
"=	c #242323",
"-	c #262525",
";	c #282525",
">	c #282625",
",	c #2E2929",
"'	c #312F2F",
")	c #282626",
"!	c #322C2C",
"~	c #2A2726",
"{	c #2E2928",
"]	c #312B2A",
"^	c #322E2C",
"/	c #2D2929",
"(	c #312B2B",
"_	c #363332",
":	c #454048",
"<	c #322E2E",
"[	c #4A3E3C",
"}	c #50423F",
"|	c #FFDE73",
"1	c #4A3E3B",
"2	c #DEEEEE",
"3	c #520418",
"4	c #3D3735",
"5	c #E6B294",
"6	c #FF714A",
"7	c #7B0418",
"8	c #443A38",
"9	c #50413F",
"0	c #A40031",
"a	c #514442",
"b	c #322C2B",
"c	c #DE0C00",
"d	c #EE1810",
"e	c #080810",
"f	c #202121",
"g	c #272525",
"h	c #312F2E",
"i	c #5B4947",
"     . +@###@+ .    . +$#########$%$###@+ . &&**",
"  =-;>+,'###',+>)++)>+,'#########'!'###',+>~{]^@",
".=)/(!$'#####'$!$$$$!$'#################'$$'####",
" -,'#########################################_::",
"+/<##########################################:::",
"$'##########################################[:::",
"############################################}:::",
"############################################}:::",
"############################################[:::",
"############################################[:::",
"############################################[:::",
"############################################[:::",
"$'##########################################[:::",
"%!##########################################[:::",
"$'##########################################[:::",
"####################|#######################1:::",
"####################2#33333#################4:::",
"###################|2|555663#################:::",
"@'###############|22222|66673#################89",
"+,'################|2256666073##################",
" +$################32533377003################8a",
".>!################3|633777003###############:::",
".>b################36633777cc3###############:::",
".>!################36d37777cc3###############:::",
" +$###############e36d77777cc3################8a",
"+,'##############ee3dd77777003##################",
"$'###############ee333ccccc033################89",
"#################ee377cccc0063###############:::",
"#################eee37cc00063###############4:::",
"#################eeee3cc0003################1:::",
"##################eeee33333#################1:::",
"############################################8:::",
"#############################################:::",
"$'############################################81",
"+,'#############################################",
" +$#############################################",
".>!#############################################",
" )$#############################################",
" +$###########################################81",
" )$##########################################:::",
".;!#########################################8:::",
"fgb#########################################1:::",
"*+$#########################################}:::",
"h###########################################::::",
"####8118##############41[[[[[[14#####41[[[9:::::",
":::::::::######:::###i::::::::::i###::::::::::::",
":::::::::8####8:::8#8::::::::::::8#8::::::::::::",
":::::::::1####}:::}#9::::::::::::9#9::::::::::::"};
