/* XPM */
static char * fexit248_xpm[] = {
"48 48 860 2",
"  	c #222222",
". 	c #212222",
"+ 	c #292626",
"@ 	c #322E2D",
"# 	c #2E2F2F",
"$ 	c #322D2D",
"% 	c #2F2F2F",
"& 	c #2F2A2A",
"* 	c #232222",
"= 	c #232322",
"- 	c #242323",
"; 	c #262525",
"> 	c #282525",
", 	c #282625",
"' 	c #2E2929",
") 	c #312F2F",
"! 	c #282626",
"~ 	c #2F2929",
"{ 	c #322F2F",
"] 	c #31302F",
"^ 	c #322C2C",
"/ 	c #2A2726",
"( 	c #2E2928",
"_ 	c #312B2A",
": 	c #322E2C",
"< 	c #2D2929",
"[ 	c #312B2B",
"} 	c #352E2D",
"| 	c #362F2D",
"1 	c #372E2C",
"2 	c #3A302D",
"3 	c #38312F",
"4 	c #32302F",
"5 	c #302F2F",
"6 	c #34312F",
"7 	c #33312F",
"8 	c #30302F",
"9 	c #3D342F",
"0 	c #3A2E29",
"a 	c #372B26",
"b 	c #3B2C26",
"c 	c #382F2B",
"d 	c #2F2F2E",
"e 	c #33302F",
"f 	c #363332",
"g 	c #454048",
"h 	c #322E2E",
"i 	c #42342E",
"j 	c #382923",
"k 	c #2C211E",
"l 	c #2E211F",
"m 	c #302623",
"n 	c #2F2A28",
"o 	c #2E2A29",
"p 	c #2D2827",
"q 	c #2B2727",
"r 	c #2C2A29",
"s 	c #302D2C",
"t 	c #342F2E",
"u 	c #2F302F",
"v 	c #41342D",
"w 	c #3A2C26",
"x 	c #322723",
"y 	c #302622",
"z 	c #2E2221",
"A 	c #2B1F1E",
"B 	c #261C1D",
"C 	c #241D1D",
"D 	c #2F2422",
"E 	c #3D2E29",
"F 	c #36302E",
"G 	c #4A3E3C",
"H 	c #32312F",
"I 	c #3A322D",
"J 	c #41332B",
"K 	c #3F332B",
"L 	c #3E312A",
"M 	c #3B2E28",
"N 	c #362824",
"O 	c #312320",
"P 	c #2B1E1D",
"Q 	c #261A1A",
"R 	c #2A1D1B",
"S 	c #372622",
"T 	c #50423F",
"U 	c #353230",
"V 	c #32302E",
"W 	c #342D2A",
"X 	c #46382F",
"Y 	c #483A30",
"Z 	c #473930",
"` 	c #45372E",
" .	c #3C2C27",
"..	c #362623",
"+.	c #30211F",
"@.	c #2B1D1D",
"#.	c #281C1B",
"$.	c #2F2523",
"%.	c #332B29",
"&.	c #372F2B",
"*.	c #38312E",
"=.	c #3A3530",
"-.	c #352F2C",
";.	c #332A27",
">.	c #3F322B",
",.	c #493B31",
"'.	c #44352D",
").	c #3F302B",
"!.	c #392A27",
"~.	c #342424",
"{.	c #302121",
"].	c #2E1F1F",
"^.	c #271B1C",
"/.	c #231A1D",
"(.	c #271E1F",
"_.	c #312623",
":.	c #3C2F28",
"<.	c #373230",
"[.	c #38322E",
"}.	c #382C28",
"|.	c #382B27",
"1.	c #42342C",
"2.	c #3F2F29",
"3.	c #332425",
"4.	c #2F2023",
"5.	c #2E1F22",
"6.	c #302120",
"7.	c #2C1F20",
"8.	c #271B20",
"9.	c #241A20",
"0.	c #291E20",
"a.	c #312523",
"b.	c #382E29",
"c.	c #464048",
"d.	c #302F2D",
"e.	c #322F2D",
"f.	c #342E2B",
"g.	c #362B28",
"h.	c #382A25",
"i.	c #3E2E28",
"j.	c #44362D",
"k.	c #40302A",
"l.	c #3A2926",
"m.	c #2C1E23",
"n.	c #2E1F23",
"o.	c #322222",
"p.	c #342422",
"q.	c #312222",
"r.	c #2C1E22",
"s.	c #271B22",
"t.	c #251A20",
"u.	c #281E1F",
"v.	c #322825",
"w.	c #352F2D",
"x.	c #484047",
"y.	c #373330",
"z.	c #35302D",
"A.	c #231E20",
"B.	c #231B1D",
"C.	c #281D1D",
"D.	c #382724",
"E.	c #402F29",
"F.	c #45362E",
"G.	c #483930",
"H.	c #392824",
"I.	c #342323",
"J.	c #302023",
"K.	c #2F1F23",
"L.	c #312123",
"M.	c #352423",
"N.	c #362523",
"O.	c #332223",
"P.	c #2D1E23",
"Q.	c #271B23",
"R.	c #251921",
"S.	c #271B1F",
"T.	c #302321",
"U.	c #3B2C27",
"V.	c #42322B",
"W.	c #46352E",
"X.	c #3F332E",
"Y.	c #36312E",
"Z.	c #34302D",
"`.	c #312F2E",
" +	c #464047",
".+	c #493F45",
"++	c #383430",
"@+	c #463B30",
"#+	c #40342B",
"$+	c #332925",
"%+	c #271F1E",
"&+	c #22181A",
"*+	c #26191B",
"=+	c #30201F",
"-+	c #362423",
";+	c #332323",
">+	c #372523",
",+	c #281B23",
"'+	c #291B22",
")+	c #2D1E21",
"!+	c #322220",
"~+	c #3A2722",
"{+	c #3F2B24",
"]+	c #432E25",
"^+	c #412E26",
"/+	c #3B2E27",
"(+	c #382C27",
"_+	c #352A25",
":+	c #322824",
"<+	c #302826",
"[+	c #423633",
"}+	c #443C42",
"|+	c #454047",
"1+	c #453D43",
"2+	c #34302E",
"3+	c #41352D",
"4+	c #3E322A",
"5+	c #342823",
"6+	c #2B1F1D",
"7+	c #2B1D1C",
"8+	c #31211F",
"9+	c #372723",
"0+	c #3F2E28",
"a+	c #362422",
"b+	c #322223",
"c+	c #2A1C23",
"d+	c #352422",
"e+	c #352421",
"f+	c #33231F",
"g+	c #30211D",
"h+	c #2E201D",
"i+	c #2C1F1C",
"j+	c #2A1F1C",
"k+	c #281E1C",
"l+	c #271D1C",
"m+	c #281D1C",
"n+	c #3F383D",
"o+	c #443F47",
"p+	c #423C43",
"q+	c #2F2D2D",
"r+	c #322B29",
"s+	c #3F332C",
"t+	c #382B26",
"u+	c #2F221F",
"v+	c #2C1E1D",
"w+	c #2F201E",
"x+	c #332421",
"y+	c #392A25",
"z+	c #3F302A",
"A+	c #42332C",
"B+	c #41312B",
"C+	c #3D2C27",
"D+	c #392724",
"E+	c #362522",
"F+	c #342321",
"G+	c #332320",
"H+	c #322221",
"I+	c #302123",
"J+	c #342421",
"K+	c #2F211F",
"L+	c #271B1B",
"M+	c #241A1A",
"N+	c #231919",
"O+	c #211818",
"P+	c #221818",
"Q+	c #251A1A",
"R+	c #2F2421",
"S+	c #40383E",
"T+	c #453F47",
"U+	c #433D43",
"V+	c #332D2B",
"W+	c #322826",
"X+	c #372A27",
"Y+	c #42342D",
"Z+	c #3C2D27",
"`+	c #2D1E1D",
" @	c #2E201E",
".@	c #332521",
"+@	c #3D2D27",
"@@	c #3B2925",
"#@	c #382623",
"$@	c #2D1F1E",
"%@	c #2C1E1F",
"&@	c #2C1E21",
"*@	c #372623",
"=@	c #332321",
"-@	c #211718",
";@	c #271C1A",
">@	c #372A25",
",@	c #433C42",
"'@	c #463F45",
")@	c #332F2C",
"!@	c #312825",
"~@	c #332623",
"{@	c #3A2925",
"]@	c #3F3029",
"^@	c #392925",
"/@	c #392723",
"(@	c #372522",
"_@	c #2C1F1D",
":@	c #271C1C",
"<@	c #261A1D",
"[@	c #2A1C22",
"}@	c #2B1E1C",
"|@	c #291E1C",
"1@	c #453F46",
"2@	c #312E2C",
"3@	c #2B2524",
"4@	c #332724",
"5@	c #3E2F29",
"6@	c #43342C",
"7@	c #483A31",
"8@	c #473830",
"9@	c #322421",
"0@	c #2D1F1D",
"a@	c #261B1B",
"b@	c #291C20",
"c@	c #2D1E22",
"d@	c #2A1F1D",
"e@	c #352D28",
"f@	c #2D2A2A",
"g@	c #362C28",
"h@	c #43352D",
"i@	c #47382F",
"j@	c #493A31",
"k@	c #281C1D",
"l@	c #2D1F20",
"m@	c #2E1F1E",
"n@	c #2A201D",
"o@	c #352D2A",
"p@	c #443A38",
"q@	c #50413F",
"r@	c #2F2928",
"s@	c #3A2F29",
"t@	c #46392F",
"u@	c #43342D",
"v@	c #291C1C",
"w@	c #312220",
"x@	c #2A1D1C",
"y@	c #291D1C",
"z@	c #221819",
"A@	c #362D29",
"B@	c #352F2E",
"C@	c #332E2B",
"D@	c #3D312B",
"E@	c #473A30",
"F@	c #46372E",
"G@	c #261B1A",
"H@	c #291C1B",
"I@	c #251A1C",
"J@	c #2D1F1F",
"K@	c #3B2D28",
"L@	c #514442",
"M@	c #292625",
"N@	c #352E2C",
"O@	c #312B28",
"P@	c #332924",
"Q@	c #41312A",
"R@	c #2C1E20",
"S@	c #281B20",
"T@	c #2F2022",
"U@	c #402E29",
"V@	c #483F44",
"W@	c #332C2A",
"X@	c #2F2C2B",
"Y@	c #2D2524",
"Z@	c #342924",
"`@	c #40332B",
" #	c #241A19",
".#	c #231A19",
"+#	c #302022",
"@#	c #2A1D22",
"##	c #302124",
"$#	c #422E2A",
"%#	c #4B3F42",
"&#	c #342B2A",
"*#	c #2D2928",
"=#	c #282020",
"-#	c #3B2A25",
";#	c #221919",
">#	c #201818",
",#	c #271C1B",
"'#	c #392623",
")#	c #2B1D23",
"!#	c #302025",
"~#	c #3F2D2A",
"{#	c #493E42",
"]#	c #252322",
"^#	c #322927",
"/#	c #342D2C",
"(#	c #2F2E2E",
"_#	c #312724",
":#	c #3E322B",
"<#	c #1F1818",
"[#	c #1D1817",
"}#	c #1C1817",
"|#	c #1E1817",
"1#	c #221A19",
"2#	c #322123",
"3#	c #2C1D23",
"4#	c #2E1F25",
"5#	c #3B2B2A",
"6#	c #2D2826",
"7#	c #3A2E2A",
"8#	c #38312C",
"9#	c #43362D",
"0#	c #3A2824",
"a#	c #382723",
"b#	c #1D1717",
"c#	c #1A1716",
"d#	c #191616",
"e#	c #211918",
"f#	c #2C1F25",
"g#	c #362929",
"h#	c #332E2D",
"i#	c #3A3230",
"j#	c #3F3730",
"k#	c #43352C",
"l#	c #3D2F29",
"m#	c #3A2A26",
"n#	c #241F29",
"o#	c #1B181D",
"p#	c #1A1C2A",
"q#	c #16171C",
"r#	c #16171B",
"s#	c #17171C",
"t#	c #161619",
"u#	c #161415",
"v#	c #171414",
"w#	c #191615",
"x#	c #1F1819",
"y#	c #251B1C",
"z#	c #2C1E1E",
"A#	c #372728",
"B#	c #3A2A31",
"C#	c #2C1E24",
"D#	c #2C1F24",
"E#	c #3A322F",
"F#	c #383330",
"G#	c #3E332A",
"H#	c #21191C",
"I#	c #1A1616",
"J#	c #161416",
"K#	c #131317",
"L#	c #121112",
"M#	c #131318",
"N#	c #141721",
"O#	c #131319",
"P#	c #121215",
"Q#	c #131113",
"R#	c #161314",
"S#	c #191515",
"T#	c #1C1819",
"U#	c #1E1818",
"V#	c #392725",
"W#	c #392624",
"X#	c #2C1E25",
"Y#	c #382A29",
"Z#	c #463B3B",
"`#	c #31312F",
" $	c #3B3129",
".$	c #2A1E1E",
"+$	c #20191A",
"@$	c #161414",
"#$	c #100F11",
"$$	c #0F0E10",
"%$	c #12141E",
"&$	c #273047",
"*$	c #283045",
"=$	c #1F263A",
"-$	c #141723",
";$	c #131215",
">$	c #1C1717",
",$	c #2A1E1C",
"'$	c #382624",
")$	c #2D1F24",
"!$	c #3A2B29",
"~$	c #483B39",
"{$	c #333130",
"]$	c #261A1C",
"^$	c #2C1D1E",
"/$	c #1D181A",
"($	c #131315",
"_$	c #111014",
":$	c #0E0D10",
"<$	c #141826",
"[$	c #40485C",
"}$	c #555C69",
"|$	c #505867",
"1$	c #38425A",
"2$	c #1B2134",
"3$	c #141418",
"4$	c #191718",
"5$	c #211919",
"6$	c #2D2024",
"7$	c #3B2B29",
"8$	c #493A37",
"9$	c #3A3029",
"0$	c #1B181B",
"a$	c #131112",
"b$	c #110F11",
"c$	c #0F0E11",
"d$	c #0E0E11",
"e$	c #151A2A",
"f$	c #3E475B",
"g$	c #666A6C",
"h$	c #7D7C7D",
"i$	c #64686C",
"j$	c #40495F",
"k$	c #212A42",
"l$	c #171B29",
"m$	c #17151A",
"n$	c #191717",
"o$	c #312221",
"p$	c #352523",
"q$	c #493935",
"r$	c #3B3028",
"s$	c #171518",
"t$	c #0F0F14",
"u$	c #11141F",
"v$	c #2A3550",
"w$	c #575E6B",
"x$	c #757775",
"y$	c #64686D",
"z$	c #414C65",
"A$	c #1D2843",
"B$	c #14141A",
"C$	c #2C1F1F",
"D$	c #322323",
"E$	c #493934",
"F$	c #3B2E25",
"G$	c #24191A",
"H$	c #291B1C",
"I$	c #10121D",
"J$	c #0F1017",
"K$	c #0F0F16",
"L$	c #1D2A48",
"M$	c #424E6B",
"N$	c #64696E",
"O$	c #525A6A",
"P$	c #222C46",
"Q$	c #121116",
"R$	c #131213",
"S$	c #211A1B",
"T$	c #271C1D",
"U$	c #291C23",
"V$	c #474046",
"W$	c #403630",
"X$	c #382A23",
"Y$	c #161B2A",
"Z$	c #26324E",
"`$	c #202C47",
" %	c #1C2846",
".%	c #273961",
"+%	c #3D4B6D",
"@%	c #5F656E",
"#%	c #5A616C",
"$%	c #2C3754",
"%%	c #11131D",
"&%	c #1D191B",
"*%	c #231A1C",
"=%	c #281D22",
"-%	c #2B1D22",
";%	c #291B23",
">%	c #271A23",
",%	c #48362E",
"'%	c #493C36",
")%	c #4A3E3B",
"!%	c #3E342E",
"~%	c #342621",
"{%	c #201718",
"]%	c #11121B",
"^%	c #323C52",
"/%	c #4C556A",
"(%	c #45516B",
"_%	c #33446B",
":%	c #35466E",
"<%	c #4C576F",
"[%	c #676C6E",
"}%	c #5A616D",
"|%	c #2D3957",
"1%	c #10131D",
"2%	c #1C191C",
"3%	c #1F181B",
"4%	c #231920",
"5%	c #261A22",
"6%	c #251923",
"7%	c #2B1E24",
"8%	c #47362D",
"9%	c #433730",
"0%	c #38312D",
"a%	c #2D201E",
"b%	c #191216",
"c%	c #1A1416",
"d%	c #1E1717",
"e%	c #121623",
"f%	c #344058",
"g%	c #5C626C",
"h%	c #656A6E",
"i%	c #5D646E",
"j%	c #5E646E",
"k%	c #6A6E6E",
"l%	c #797A79",
"m%	c #4E5769",
"n%	c #1F2A42",
"o%	c #0E0E13",
"p%	c #151414",
"q%	c #1A181C",
"r%	c #1D171B",
"s%	c #21181F",
"t%	c #231822",
"u%	c #231723",
"v%	c #241823",
"w%	c #2A1E24",
"x%	c #372928",
"y%	c #323130",
"z%	c #332F2E",
"A%	c #2C2220",
"B%	c #191417",
"C%	c #181416",
"D%	c #1B1716",
"E%	c #0F1118",
"F%	c #232E45",
"G%	c #4E5767",
"H%	c #666B6D",
"I%	c #58606C",
"J%	c #323E56",
"K%	c #121622",
"L%	c #1A181E",
"M%	c #241723",
"N%	c #291D24",
"O%	c #342728",
"P%	c #3D312D",
"Q%	c #3A3430",
"R%	c #313030",
"S%	c #37302C",
"T%	c #342B25",
"U%	c #2A221D",
"V%	c #1F1A18",
"W%	c #171415",
"X%	c #141213",
"Y%	c #121012",
"Z%	c #100E11",
"`%	c #100F16",
" &	c #2E3B57",
".&	c #4D5768",
"+&	c #62686B",
"@&	c #6F726F",
"#&	c #757674",
"$&	c #545D6B",
"%&	c #33415C",
"&&	c #161D2F",
"*&	c #1C191E",
"=&	c #201A1D",
"-&	c #251C21",
";&	c #281D23",
">&	c #271B24",
",&	c #261A23",
"'&	c #332729",
")&	c #3D302C",
"!&	c #38322F",
"~&	c #303031",
"{&	c #36322F",
"]&	c #3B332B",
"^&	c #29221D",
"/&	c #121014",
"(&	c #0D0D12",
"_&	c #110F12",
":&	c #0F0D11",
"<&	c #0D0E11",
"[&	c #0D0D0F",
"}&	c #121015",
"|&	c #16121A",
"1&	c #1C2034",
"2&	c #242D44",
"3&	c #2E364E",
"4&	c #373F54",
"5&	c #3B455B",
"6&	c #36435D",
"7&	c #273652",
"8&	c #161E2F",
"9&	c #0E0F14",
"0&	c #0D0E13",
"a&	c #0E1016",
"b&	c #131014",
"c&	c #181318",
"d&	c #1E191E",
"e&	c #281F21",
"f&	c #2E2627",
"g&	c #322728",
"h&	c #2F2327",
"i&	c #2A1E25",
"j&	c #382828",
"k&	c #43322D",
"l&	c #483A36",
"m&	c #322C28",
"n&	c #191619",
"o&	c #141015",
"p&	c #191315",
"q&	c #161114",
"r&	c #120F12",
"s&	c #0F0D10",
"t&	c #151218",
"u&	c #1B151E",
"v&	c #1E1720",
"w&	c #1F1720",
"x&	c #201823",
"y&	c #1E1926",
"z&	c #1D1C2A",
"A&	c #181A28",
"B&	c #12141F",
"C&	c #0D0E10",
"D&	c #151015",
"E&	c #1B141B",
"F&	c #231B20",
"G&	c #2E2828",
"H&	c #38302D",
"I&	c #382C2A",
"J&	c #2F2125",
"K&	c #402B2A",
"L&	c #4E3A36",
"M&	c #4B4044",
"N&	c #464149",
"O&	c #33302E",
"P&	c #2F2A29",
"Q&	c #2F2625",
"R&	c #302521",
"S&	c #211817",
"T&	c #151112",
"U&	c #130F14",
"V&	c #19141C",
"W&	c #1F1722",
"X&	c #231923",
"Y&	c #251A24",
"Z&	c #261B24",
"`&	c #251B23",
" *	c #1A141A",
".*	c #141014",
"+*	c #100E12",
"@*	c #110E12",
"#*	c #100F13",
"$*	c #111017",
"%*	c #141116",
"&*	c #1A1319",
"**	c #22191F",
"=*	c #2B2125",
"-*	c #3A312E",
";*	c #362A29",
">*	c #352627",
",*	c #46312D",
"'*	c #4D3F40",
")*	c #474048",
"!*	c #202121",
"~*	c #272525",
"{*	c #322C2B",
"]*	c #322924",
"^*	c #120E15",
"/*	c #161118",
"(*	c #1A121D",
"_*	c #1E1621",
":*	c #231924",
"<*	c #281E26",
"[*	c #2C2328",
"}*	c #2D2427",
"|*	c #292024",
"1*	c #21191F",
"2*	c #191319",
"3*	c #161017",
"4*	c #171118",
"5*	c #161119",
"6*	c #1B141A",
"7*	c #231A1E",
"8*	c #2C2224",
"9*	c #352A2A",
"0*	c #3B312D",
"a*	c #3C2E2B",
"b*	c #4A3934",
"c*	c #2B211E",
"d*	c #1A1318",
"e*	c #19121A",
"f*	c #1D151D",
"g*	c #1F151F",
"h*	c #211621",
"i*	c #2C2529",
"j*	c #312C2D",
"k*	c #332C2C",
"l*	c #312929",
"m*	c #292023",
"n*	c #1D141D",
"o*	c #1E151E",
"p*	c #1E141D",
"q*	c #23191F",
"r*	c #372B29",
"s*	c #3E322D",
"t*	c #36312F",
"u*	c #39332F",
"v*	c #3C332E",
"w*	c #4F403C",
"x*	c #322A27",
"y*	c #282022",
"z*	c #2A2022",
"A*	c #2E2125",
"B*	c #2F2025",
"C*	c #312327",
"D*	c #312D2D",
"E*	c #322929",
"F*	c #291D23",
"G*	c #271C23",
"H*	c #2B2024",
"I*	c #352928",
"J*	c #3C312D",
"K*	c #372F2E",
"L*	c #3A2F2D",
"M*	c #43332F",
"N*	c #4A3B38",
"O*	c #493D3B",
"P*	c #453835",
"Q*	c #3F302E",
"R*	c #3B2D2C",
"S*	c #3A2C2C",
"T*	c #362B2B",
"U*	c #332829",
"V*	c #312729",
"W*	c #33292A",
"X*	c #382F2D",
"Y*	c #35312F",
"Z*	c #3D3735",
"`*	c #484045",
" =	c #45414A",
".=	c #2F3032",
"+=	c #2F3237",
"@=	c #5C4B4D",
"#=	c #47434D",
"$=	c #47424D",
"%=	c #45424E",
"&=	c #46424D",
"*=	c #46414B",
"==	c #46414A",
"-=	c #45404A",
";=	c #45404B",
">=	c #544548",
",=	c #333338",
"'=	c #323338",
")=	c #31343A",
"!=	c #47444F",
"~=	c #45424C",
"{=	c #454049",
"]=	c #45424D",
"^=	c #45434E",
"/=	c #45434F",
"(=	c #4A4145",
"_=	c #2E2F30",
":=	c #443B3B",
"<=	c #45414B",
"[=	c #45414C",
"}=	c #443D3F",
"|=	c #46424E",
"1=	c #4D4142",
"2=	c #48424B",
"3=	c #52433F",
"          .   + @ # # # @ +             .   + $ # # # % % # # # # $ & $ # # # @ +   .   * * = = ",
"    - ; > , + ' ) # # # ) ' + , ! + + ! , + ~ { % % % ] ] # # # # ) ^ ) # # # ) ' + , / ( _ : @ ",
". - ! < [ ^ $ ) # # # # # ) $ ^ $ $ } | 1 2 3 4 ] ] 5 5 ] 6 4 5 % 7 ] # # # # # ) $ $ ) # # # # ",
"  ; ' { # # # # 8 % # # # # # # # % 9 0 a b c d % d d d % 4 6 % % e 7 # % % # # # # # # # f g g ",
"+ < h % # # # # % # # # # # # # # ] i j k l m n o p q r s t ] % # # # # # % % # # # # # # g g g ",
"$ ) # # # # # u % # # % % # # # # 6 v w x x x y z A B C D E F % # # # # # # # # # # # # G g g g ",
"# # # # # # # # # # % # # # # % H I J J K K L M N O P Q R S 1 5 5 % % # # # # # # # # # T g g g ",
"# # # # # # # # # # % % # # % U V W L X Y Z ` J  ...+.@.#.P $.%.&.*.4 # # # # # # # # # T g g g ",
"6 # # # # # # # # # # # % % 8 =.-.;.>.Y ,.Z '.).!.~.{.].P ^./.(._.:.*.% # % # # # # # # G g g g ",
"<.# # # # # # # # # # # # # 8 [.}.|.1.Y Z '.2.!.3.4.5.{.6.7.8.9.0.a.b.V % % % # # # # # G g g c.",
"8 % # # # # # # # # # # d.e.f.g.h.i.j.Z ` k.l.~.4.m.n.o.p.q.r.s.t.u.v.w.e 4 8 # # % # # G g g x.",
"# # # # # # # # % y.z.q A.B.C.6.D.E.F.G.F.2.H.I.J.K.L.M.N.O.P.Q.R.S.T.U.V.W.X.e 4 Y.Z.`.G  +g .+",
"$ ) # # # # % ] ++@+#+$+%+&+*+=+D.E.F.G.F.2.H.-+I.;+M.>+>+O.m.,+'+)+!+~+{+]+^+/+(+_+:+<+[+}+|+1+",
"& ^ # # # ] ] % 2+3+` 4+5+6+7+8+9+i.'.X '.0+H.>+a+a+N.N.M.b+P.c+P.b+d+e+f+g+h+i+j+k+l+m+a.n+o+p+",
"$ ) # # 8 ] 5 q+r+s+X 1.t+u+v+w+x+y+z+A+B+C+D+E+F+G+H+o.b+I+n.n.L.M.N.J+K+P L+M+N+O+P+Q+R+S+T+U+",
"# # # # 6 z.V+W+X+Y+Z '.Z+J+w+`+ @.@y++@C+@@#@F++.$@%@&@P.n.I+O.M.>+*@E+=@+.v+L+N+-@-@;@>@,@g '@",
"# # # # )@!@~@{@]@F.Z F.]@^@=@$@P  @x+9+D+/@(@!+_@:@<@8.[@n.O.-+>+>+(@(@(@d+8+}@Q+O+P+|@0 1@g  +",
"# # # % 2@3@4@5@6@Z 7@8@6@2.y+9@ @0@w+!+J+E+E+!+P a@<@b@c@L.M.>+E+J+=@J+E+E+!+P Q+-@O+d@e@|+g g ",
"@ ) # 8 d f@g@h@i@,.,.j@i@'.]@y+x+w+`+0@+.J+E+!+P a@k@l@o.M.>+>+J++.m@+.J+E+!+P Q+-@O+n@o@% p@q@",
"+ ' { ] e.r@s@t@,.,.,.,.,.Z u@i.9+8+P v@v+w@F+8+}@L+x@+.p.>+*@E+!+_@y@0@!+d+G+0@L+N+z@A A@% # % ",
"  + B@7 C@!@D@E@j@i@F@i@j@j@F.2.H.!+7+a@#.$@+.m@v@G@H@$@!+e+(@E+!+P L+P !+a+J++.v+^.I@J@K@] p@L@",
". M@N@V O@P@>.Z i@6@Q@6@i@7@F.E.H.!+7+G@G@#.x@v@G@Q+G@H@_@8+e+E+!+P L+P !+E+E+e+!+R@S@T@U@V@g g ",
". , W@X@Y@Z@`@t@F.k.C+2.'.X '.i.9+8+x@Q+N+ #M+ #N+N+N+.#G@v+!+F+8+}@L+P !+E+#@#@d++#@###$#%#g g ",
". M@&#*#=#m >.X F.2.-#C+Q@A+z+y+x+$@#.M+;#O+>#>#>#>#>#>#;#,#$@+.$@v@L+P !+(@'#'#>+L.)#!#~#{#g g ",
"]#^#/#(#p _#:#X F.2.{@{@ .+@y+.@$@#.Q N+O+<#[#}#[#[#}#}#|#1#,#x@H@G@G@P !+(@'#'#>+2#3#4#5#3 p@L@",
"6#7#{ % `.8#9#X u@i.0##@a#*@x+$@,# #N+;#<#b#c#d#d#d#d#d#c#|#e# # #N+Q+P !+(@#@#@>+2#3#f#g#3 # # ",
"h#i#% # # ] j#k#l#m#D.E+F+8+$@#. #n#O+>#b#o#p#q#r#s#t#u#v#w#b#x#O+;#y#z#!+A#B#'#>+2#C#D#g#E#p@q@",
"% F#% # # # 7 G#~@p.*@F++.v+#.Q+N+H#<#b#I#J#K#L#M#N#O#P#Q#R#S#T#U#O+Q+v+!+(@V#W#>+2#X#D#Y#Z#g g ",
"8 ++u # # # `# $.$].E+G+0@L+ #N+;#+$b#d#@$Q##$$$%$&$*$=$-$;$u#d#>$<# #,$8+d+'$'$>+2#X#)$!$~$|+g ",
"8 {$# # # # 8  $]$^$d+!+v+Q+;#O+>#/$I#@$($_$$$:$<$[$}$|$1$2$3$u#4$b#5$,#$@w@M.>+N.b+X#6$7$8$ +g ",
"# # # # # # 8 9$]$^$d+!+v+Q+O+<#b#0$R#a$b$c$:$d$e$f$g$h$i$j$k$l$m$n$|#1#,#v+o$p$N.b+C#6$7$q$ +g ",
"# # # # # # 7 r$*+^$F+w@}@ #<#>$d#s$a$#$$$:$d$t$u$v$w$x$h$y$z$A$B$u#I#[#e#a@C$D$I.L.)#)$7$E$ +g ",
"# # # # # # =.F$G$H$+.$@,#5$b#w#@$($b$$$:$d$I$J$K$L$M$N$h$h$O$P$Q$R$@$S#>$S$T$6$I+n.U$)$7$E$V$g ",
"$ ) # # # # W$X$z@G$x@,#.#|#w#R#a$b$c$:$:$Y$Z$`$ %.%+%@%h$h$#%$%%%b$a$R#S#&%*%=%-%;%>%D#7$,%'%)%",
"+ ' ) # # # !%~%{%{% #5$|#I#@$a$#$$$:$:$]%^%/%(%_%:%<%[%h$h$}%|%1%$$#$a$v#2%3%4%5%6%6%7%!$8%9%7 ",
"  + $ # # # 0%a%b%c%d%b#w#@$R$#$$$:$:$:$e%f%g%h%i%j%k%h$h$l%m%n%o%:$$$L#p%q%r%s%t%u%v%w%x%u@W$y%",
". , ^ # # # z%A%B%C%D%S#R#L##$c$:$:$:$:$E%F%G%H%x$h$h$h$x$I%J%K%:$:$$$L#p%L%r%s%t%M%v%N%O%P%Q%R%",
"  ! $ # # # ] S%T%U%V%W%X%Y%Z%$$:$:$:$o%`%e$ &.&+&@&#&H%$&%&&&d$d$:$c$L#J#*&=&-&;&>&,&N%'&)&!&~&",
"  + $ # # # # 8 {&]&^&/&(&_&:&:$:$<&[&c$}&|&1&2&3&4&5&6&7&8&9&0&a&[&c$b&c&d&e&f&g&h&i&X#j&k&l&G ",
"  ! $ # # % # # # `#m&n&o&p&q&r&s&[&[&Z%t&u&v&w&x&y&z&A&B&C&C&o%9&C&Z%D&E&F&G&@ H&I&h&J&K&L&M&N&",
". > ^ # # u % # # # O&P&Q&R&n@S&T&c$c$U&V&W&X&Y&Z&`&s% *.*+*+*@*#*$*%*&***=*$ % 7 -*;*>*,*'*x.)*",
"!*~*{*# # u % # # % % % ] 2+z.]*S&U&^*/*(*_*:*<*[*}*|*1*2*3*3*4*/*5*6*7*8*9*2+% # 7 0*a*b* +g c.",
"= + $ # # # # # % # # # # # # w.c*d*e*f*g*h*`&i*j*k*l*m*s%n*n*o*n*p*q*8*r*s*t*# # % u*v*w*g g g ",
"`.# # # # # # # # # # # # # # 4 x*y*z*A*J&B*C*D*% ) w.E*6$F*F*;&G*G*H*I*J*u*8 # # # 8 ]  +g g  +",
"# # # # p@)%)%p@# # # # # # # # % (#@ B@K*L*M*N*G G O*P*Q*R*S*T*U*V*W*X*Y*Z*)%G G G q@g g g g `*",
"g g g g g g g g g % # # # # # g g  =# .=+=@=#=$=%=%=%=&=*===-=;=>=,='=)=!=~=g {={=g {=]=^=/=/=(=",
"g g g g g g g g g p@# # # # p@g g {=p@_=:=<=[=[=~=]=]=%=%=]=%=%=]=}=+=}=]=[= ==={=g {=/=/=^=|=1=",
"`* +g g g g g g g )%# # # # T g g g T # q@g g g g g g g g g g g g q@# q@g g g  + +g g  =~=%=2=3="};
