/* XPM */
static char * floor32_xpm[] = {
"32 32 45 1",
" 	c #222222",
".	c #212222",
"+	c #302A2A",
"@	c #413635",
"#	c #2F2A2A",
"$	c #483B3A",
"%	c #403535",
"&	c #252424",
"*	c #2C2828",
"=	c #2F2A29",
"-	c #372F2F",
";	c #433736",
">	c #423736",
",	c #362E2D",
"'	c #403532",
")	c #453835",
"!	c #3A3131",
"~	c #403635",
"{	c #463A39",
"]	c #4D3E3C",
"^	c #604B46",
"/	c #69514C",
"(	c #473B3A",
"_	c #574542",
":	c #6D554F",
"<	c #775C55",
"[	c #584643",
"}	c #6E554F",
"|	c #785C55",
"1	c #574642",
"2	c #534340",
"3	c #654F4A",
"4	c #4C3E3C",
"5	c #544340",
"6	c #202121",
"7	c #2E2929",
"8	c #403534",
"9	c #473A39",
"0	c #4A3C39",
"a	c #53423F",
"b	c #614C48",
"c	c #705751",
"d	c #6A524C",
"e	c #6C544E",
"f	c #755A53",
"   . +@@+ .  . #@$$$$%#+%@+ .   ",
".&*=#-;;-#=##=#-;$$$$>-->;-#=,')",
" *!~@;{{;@~@@~@;{$$$${;;{{;%~]^/",
"#-;$$$$$$$$$$$$$$$$$$$$$$$$($_:<",
"@;{$$$$$$$$$$$$$$$$$$$$$$$$$$[}|",
"$$$$$$$$$$$$$$$$$$$$$$$$$$$($_:<",
"$$$$$$$$$$$$$$$$$$$$$$$$$$$($_:<",
"%>{$$$$$$$$$$$$$$$$$$$$$$$$($_:<",
"#-;$$$$$$$$$$$$$$$$$$$$$$$$($_:<",
"+-;$$$$$$$$$$$$$$$$$$$$$$$$($1:<",
"%>{$$$$$$$$$$$$$$$$$$$$$$$$($_:<",
"@;{$$$$$$$$$$$$$$$$$$$$$$$$($23:",
"+-;$$$$$$$$$$$$$$$$$$$$$$$$$$45_",
" #@$$$$$$$$$$$$$$$$$$$$$$$$$$]5[",
".=~$$$$$$$$$$$$$$$$$$$$$$$$($23:",
".=~$$$$$$$$$$$$$$$$$$$$$$$$($23:",
" #@$$$$$$$$$$$$$$$$$$$$$$$$$$]5[",
"#-;$$$$$$$$$$$$$$$$$$$$$$$$$$45_",
"@;{$$$$$$$$$$$$$$$$$$$$$$$$($23:",
"$$$$$$$$$$$$$$$$$$$$$$$$$$$($1:<",
"$$$$$$$$$$$$$$$$$$$$$$$$$$$($1:<",
"@;{$$$$$$$$$$$$$$$$$$$$$$$$($53:",
"#-;$$$$$$$$$$$$$$$$$$$$$$$$$$45_",
" #@$$$$$$$$$$$$$$$$$$$$$$$$$$$((",
".=~$$$$$$$$$$$$$$$$$$$$$$$$$$$((",
" #@$$$$$$$$$$$$$$$$$$$$$$$$$$45_",
" #@$$$$$$$$$$$$$$$$$$$$$$$$($53:",
"678($($$$$(($$(((((((($$(((9(_:<",
" #@$$$$$$$$$$$$$$$$$$$$$$$$($1:<",
")0a1154$$]52]42_1__1_2442_1__bc<",
"/de::35((533553::::::3553::::cf<",
"<<<<<:_(([::[_:<<<<<<:__:<<<<<<<"};
