/* XPM */
static char * floor48_xpm[] = {
"48 48 38 1",
" 	c #222222",
".	c #212222",
"+	c #292626",
"@	c #322E2D",
"#	c #2E2F2F",
"$	c #322D2D",
"%	c #2F2A2A",
"&	c #232222",
"*	c #232322",
"=	c #242323",
"-	c #262525",
";	c #282525",
">	c #282625",
",	c #2E2929",
"'	c #312F2F",
")	c #282626",
"!	c #322C2C",
"~	c #2A2726",
"{	c #2E2928",
"]	c #312B2A",
"^	c #322E2C",
"/	c #2D2929",
"(	c #312B2B",
"_	c #363332",
":	c #454048",
"<	c #322E2E",
"[	c #4A3E3C",
"}	c #50423F",
"|	c #4A3E3B",
"1	c #3D3735",
"2	c #443A38",
"3	c #50413F",
"4	c #514442",
"5	c #322C2B",
"6	c #202121",
"7	c #272525",
"8	c #312F2E",
"9	c #5B4947",
"     . +@###@+ .    . +$#########$%$###@+ . &&**",
"  =-;>+,'###',+>)++)>+,'#########'!'###',+>~{]^@",
".=)/(!$'#####'$!$$$$!$'#################'$$'####",
" -,'#########################################_::",
"+/<##########################################:::",
"$'##########################################[:::",
"############################################}:::",
"############################################}:::",
"############################################[:::",
"############################################[:::",
"############################################[:::",
"############################################[:::",
"$'##########################################[:::",
"%!##########################################[:::",
"$'##########################################[:::",
"############################################|:::",
"############################################1:::",
"#############################################:::",
"@'############################################23",
"+,'#############################################",
" +$###########################################24",
".>!##########################################:::",
".>5##########################################:::",
".>!##########################################:::",
" +$###########################################24",
"+,'#############################################",
"$'############################################23",
"#############################################:::",
"############################################1:::",
"############################################|:::",
"############################################|:::",
"############################################2:::",
"#############################################:::",
"$'############################################2|",
"+,'#############################################",
" +$#############################################",
".>!#############################################",
" )$#############################################",
" +$###########################################2|",
" )$##########################################:::",
".;!#########################################2:::",
"675#########################################|:::",
"*+$#########################################}:::",
"8###########################################::::",
"####2||2##############1|[[[[[[|1#####1|[[[3:::::",
":::::::::######:::###9::::::::::9###::::::::::::",
":::::::::2####2:::2#2::::::::::::2#2::::::::::::",
":::::::::|####}:::}#3::::::::::::3#3::::::::::::"};
