/* XPM */
static char * ghostL_xpm[] = {
"48 48 201 2",
"  	c None",
". 	c #495950",
"+ 	c #51625A",
"@ 	c #4A5F53",
"# 	c #3B5847",
"$ 	c #495951",
"% 	c #698076",
"& 	c #769084",
"* 	c #6A8A7A",
"= 	c #507D65",
"- 	c #386B4F",
"; 	c #506259",
"> 	c #5F776B",
", 	c #749385",
"' 	c #7EA192",
") 	c #739C89",
"! 	c #5C9077",
"~ 	c #498065",
"{ 	c #426B57",
"] 	c #3C5B4C",
"^ 	c #698075",
"/ 	c #709887",
"( 	c #6F9C88",
"_ 	c #6E9C88",
": 	c #6A9A85",
"< 	c #61967F",
"[ 	c #5B9079",
"} 	c #598A75",
"| 	c #52836C",
"1 	c #457A5F",
"2 	c #396A4F",
"3 	c #4C6056",
"4 	c #6F8D80",
"5 	c #789E8D",
"6 	c #6B9A87",
"7 	c #639882",
"8 	c #639883",
"9 	c #5C937B",
"0 	c #4B8A6B",
"a 	c #3B7656",
"b 	c #455E52",
"c 	c #628978",
"d 	c #6F9C89",
"e 	c #6C9A87",
"f 	c #669883",
"g 	c #649883",
"h 	c #5C947C",
"i 	c #4C8B6B",
"j 	c #3C7757",
"k 	c #486C5B",
"l 	c #54836D",
"m 	c #5D9179",
"n 	c #61957F",
"o 	c #5E957D",
"p 	c #538E72",
"q 	c #467F62",
"r 	c #3A654E",
"s 	c #507867",
"t 	c #54836C",
"u 	c #4B7D61",
"v 	c #4E8265",
"w 	c #5C9078",
"x 	c #4F8265",
"y 	c #629780",
"z 	c #558D73",
"A 	c #405E50",
"B 	c #588673",
"C 	c #598C74",
"D 	c #457557",
"E 	c #447456",
"F 	c #4C8A6B",
"G 	c #598774",
"H 	c #5A8A74",
"I 	c #456D55",
"J 	c #446C54",
"K 	c #598A74",
"L 	c #5C8D78",
"M 	c #4E7763",
"N 	c #4E7762",
"O 	c #405D50",
"P 	c #61947F",
"Q 	c #5D8E78",
"R 	c #649983",
"S 	c #538F72",
"T 	c #5D947D",
"U 	c #5D957D",
"V 	c #53856E",
"W 	c #467D60",
"X 	c #467D61",
"Y 	c #53856D",
"Z 	c #498265",
"` 	c #5B9078",
" .	c #416550",
"..	c #3A6147",
"+.	c #3B6249",
"@.	c #40654E",
"#.	c #46715A",
"$.	c #5A8C76",
"%.	c #588773",
"&.	c #446C55",
"*.	c #395A41",
"=.	c #40624C",
"-.	c #40634D",
";.	c #385A40",
">.	c #4E7662",
",.	c #62957F",
"'.	c #538A6F",
").	c #468361",
"!.	c #3A7151",
"~.	c #598C75",
"{.	c #416F51",
"].	c #518068",
"^.	c #518069",
"/.	c #406E50",
"(.	c #5D9079",
"_.	c #427855",
":.	c #3C744E",
"<.	c #366645",
"[.	c #4A5951",
"}.	c #4F8366",
"|.	c #4F8266",
"1.	c #598A71",
"2.	c #578267",
"3.	c #517D5F",
"4.	c #4A7A5B",
"5.	c #417153",
"6.	c #385F47",
"7.	c #4A5A52",
"8.	c #687F74",
"9.	c #495A51",
"0.	c #5D927A",
"a.	c #568266",
"b.	c #6C8F7C",
"c.	c #709582",
"d.	c #63907A",
"e.	c #54886F",
"f.	c #457D60",
"g.	c #4A6055",
"h.	c #6B8B7A",
"i.	c #4B6356",
"j.	c #416051",
"k.	c #598773",
"l.	c #457456",
"m.	c #4E765B",
"n.	c #6C907C",
"o.	c #729A87",
"p.	c #659780",
"q.	c #569175",
"r.	c #498A69",
"s.	c #3C5949",
"t.	c #517E66",
"u.	c #518066",
"v.	c #436552",
"w.	c #598874",
"x.	c #40684D",
"y.	c #528266",
"z.	c #578D71",
"A.	c #508C6E",
"B.	c #4A8A69",
"C.	c #448764",
"D.	c #396C4F",
"E.	c #355740",
"F.	c #40624E",
"G.	c #629781",
"H.	c #5A8B76",
"I.	c #39674A",
"J.	c #3B7253",
"K.	c #3D7858",
"L.	c #375945",
"M.	c #457C60",
"N.	c #5B9179",
"O.	c #4A8265",
"P.	c #3C7453",
"Q.	c #386649",
"R.	c #355C43",
"S.	c #386A4F",
"T.	c #488163",
"U.	c #3D6C51",
"V.	c #365D44",
"W.	c #335741",
"X.	c #436B57",
"Y.	c #478162",
"Z.	c #3D7958",
"`.	c #38694E",
" +	c #569075",
".+	c #418662",
"++	c #408561",
"@+	c #3D7B5A",
"#+	c #36644B",
"$+	c #418661",
"%+	c #40825F",
"&+	c #5C947B",
"*+	c #3C7657",
"=+	c #418762",
"-+	c #3D7C5A",
";+	c #37654B",
">+	c #36644A",
",+	c #3D7A5A",
"'+	c #438764",
")+	c #498968",
"!+	c #418561",
"                                                                                                ",
"                                                                                                ",
"                                                                                                ",
"                                                                                                ",
"                                                                                                ",
"                                                                                                ",
"                                                                                                ",
"                                                                                                ",
"                                          . + + @ #                                             ",
"                                        $ % & & * = -                                           ",
"                                  $ ; + > , ' ' ) ! ~ { ]                                       ",
"                                $ ^ & & , / ( _ : < [ } | 1 2                                   ",
"                                3 4 ' ' 5 6 7 7 8 7 7 7 9 0 a                                   ",
"                                b c ( d e f 7 7 7 7 g g h i j                                   ",
"                                k l m < 7 7 n m m n 7 7 o p q r                                 ",
"                              s t u v w 7 7 w x x w 7 8 y o z q -                               ",
"                            A B C D E C g g C E E C 7 g 7 7 9 F j                               ",
"                            A G H I J K g g K J J K 7 g g 7 h i j                               ",
"                            A B L M N L g g L N N L 7 8 7 7 9 F j                               ",
"                            O B P Q L P 7 7 P L L P 7 7 7 7 9 F j                               ",
"                            O B 7 R y o o y y o o y 7 7 7 7 9 F j                               ",
"                            O B g R o S p T U S S U 7 7 7 7 9 F j                               ",
"                            O B P Q V W X V Y X Z ` 7 g g 8 h i j                               ",
"                            A B L M  ...+. .@.+.#.$.7 g 7 7 9 F j                               ",
"                            A %.K &.*.=.-.*.;.-.>.L 7 g ,.w '.).!.                              ",
"                            A G ~.D {.].^.{./.^.L P 8 7 (.x _.:.<.                              ",
"                      [..   O %.w }.|.w w |.x w 7 8 n m 1.2.3.4.5.6.                            ",
"                    7.^ 8.9.O B n 0.m < < m m < g 7 w x a.b.c.d.e.f.-                           ",
"                    g.* h.i.j.k.7 g 7 7 7 7 7 7 g 7 C l.m.n.o.p.q.r.j                           ",
"                    s.t.u.=.v.w.7 g 8 7 7 8 8 7 g 7 K J x.y.z.A.B.C.j                           ",
"                      2 D.E.F.V o G.7 7 7 7 7 7 g 7 H.#.I.J.K.j j j -                           ",
"                            L.M.p o 7 7 7 7 7 7 g 7 N.O.P.Q.R.                                  ",
"                              S.~ [ 7 g 7 7 7 7 7 7 o p T.U.V.W.                                ",
"                                X.} 7 g 7 7 7 7 7 7 y o z Y.Z.j `.                              ",
"                                ] | 9 h 9 9 o y g g G.o  +r..+++@+#+                            ",
"                                  1 F i 0 F p o 7 7 o p r.C..+$+%+@+-                           ",
"                                  2 @+%+$+.+r. +h &+z q *+a @+%+=+.+-+;+                        ",
"                                    >+,+++++'+)+i F q r     #+@+!+.+%+@+2                       ",
"                                      2 j j j j j j -         - j j j j 2                       ",
"                                                                                                ",
"                                                                                                ",
"                                                                                                ",
"                                                                                                ",
"                                                                                                ",
"                                                                                                ",
"                                                                                                ",
"                                                                                                ",
"                                                                                                "};
