/* XPM */
static char * ghostRtrans_xpm[] = {
"48 48 201 2",
"  	c None",
". 	c #3B5847",
"+ 	c #4A5F53",
"@ 	c #51625A",
"# 	c #495950",
"$ 	c #386B4F",
"% 	c #507D65",
"& 	c #6A8A7A",
"* 	c #769084",
"= 	c #698076",
"- 	c #495951",
"; 	c #3C5B4C",
"> 	c #426B57",
", 	c #498065",
"' 	c #5C9077",
") 	c #739C89",
"! 	c #7EA192",
"~ 	c #749385",
"{ 	c #5F776B",
"] 	c #506259",
"^ 	c #396A4F",
"/ 	c #457A5F",
"( 	c #52836C",
"_ 	c #598A75",
": 	c #5B9079",
"< 	c #61967F",
"[ 	c #6A9A85",
"} 	c #6E9C88",
"| 	c #6F9C88",
"1 	c #709887",
"2 	c #698075",
"3 	c #3B7656",
"4 	c #4B8A6B",
"5 	c #5C937B",
"6 	c #639882",
"7 	c #639883",
"8 	c #6B9A87",
"9 	c #789E8D",
"0 	c #6F8D80",
"a 	c #4C6056",
"b 	c #3C7757",
"c 	c #4C8B6B",
"d 	c #5C947C",
"e 	c #649883",
"f 	c #669883",
"g 	c #6C9A87",
"h 	c #6F9C89",
"i 	c #628978",
"j 	c #455E52",
"k 	c #3A654E",
"l 	c #467F62",
"m 	c #538E72",
"n 	c #5E957D",
"o 	c #61957F",
"p 	c #5D9179",
"q 	c #54836D",
"r 	c #486C5B",
"s 	c #558D73",
"t 	c #629780",
"u 	c #5C9078",
"v 	c #4F8265",
"w 	c #4E8265",
"x 	c #4B7D61",
"y 	c #54836C",
"z 	c #507867",
"A 	c #4C8A6B",
"B 	c #598C74",
"C 	c #447456",
"D 	c #457557",
"E 	c #588673",
"F 	c #405E50",
"G 	c #598A74",
"H 	c #446C54",
"I 	c #456D55",
"J 	c #5A8A74",
"K 	c #598774",
"L 	c #5C8D78",
"M 	c #4E7762",
"N 	c #4E7763",
"O 	c #61947F",
"P 	c #5D8E78",
"Q 	c #405D50",
"R 	c #649983",
"S 	c #5D957D",
"T 	c #538F72",
"U 	c #5D947D",
"V 	c #5B9078",
"W 	c #498265",
"X 	c #467D61",
"Y 	c #53856D",
"Z 	c #53856E",
"` 	c #467D60",
" .	c #5A8C76",
"..	c #46715A",
"+.	c #3B6249",
"@.	c #40654E",
"#.	c #416550",
"$.	c #3A6147",
"%.	c #3A7151",
"&.	c #468361",
"*.	c #538A6F",
"=.	c #62957F",
"-.	c #4E7662",
";.	c #40634D",
">.	c #385A40",
",.	c #395A41",
"'.	c #40624C",
").	c #446C55",
"!.	c #588773",
"~.	c #366645",
"{.	c #3C744E",
"].	c #427855",
"^.	c #5D9079",
"/.	c #518069",
"(.	c #406E50",
"_.	c #416F51",
":.	c #518068",
"<.	c #598C75",
"[.	c #385F47",
"}.	c #417153",
"|.	c #4A7A5B",
"1.	c #517D5F",
"2.	c #578267",
"3.	c #598A71",
"4.	c #4F8266",
"5.	c #4F8366",
"6.	c #4A5951",
"7.	c #457D60",
"8.	c #54886F",
"9.	c #63907A",
"0.	c #709582",
"a.	c #6C8F7C",
"b.	c #568266",
"c.	c #5D927A",
"d.	c #495A51",
"e.	c #687F74",
"f.	c #4A5A52",
"g.	c #498A69",
"h.	c #569175",
"i.	c #659780",
"j.	c #729A87",
"k.	c #6C907C",
"l.	c #4E765B",
"m.	c #457456",
"n.	c #598773",
"o.	c #416051",
"p.	c #4B6356",
"q.	c #6B8B7A",
"r.	c #4A6055",
"s.	c #448764",
"t.	c #4A8A69",
"u.	c #508C6E",
"v.	c #578D71",
"w.	c #528266",
"x.	c #40684D",
"y.	c #598874",
"z.	c #436552",
"A.	c #518066",
"B.	c #517E66",
"C.	c #3C5949",
"D.	c #3D7858",
"E.	c #3B7253",
"F.	c #39674A",
"G.	c #5A8B76",
"H.	c #629781",
"I.	c #40624E",
"J.	c #355740",
"K.	c #396C4F",
"L.	c #355C43",
"M.	c #386649",
"N.	c #3C7453",
"O.	c #4A8265",
"P.	c #5B9179",
"Q.	c #457C60",
"R.	c #375945",
"S.	c #335741",
"T.	c #365D44",
"U.	c #3D6C51",
"V.	c #488163",
"W.	c #386A4F",
"X.	c #38694E",
"Y.	c #3D7958",
"Z.	c #478162",
"`.	c #436B57",
" +	c #36644B",
".+	c #3D7B5A",
"++	c #408561",
"@+	c #418662",
"#+	c #569075",
"$+	c #40825F",
"%+	c #418661",
"&+	c #37654B",
"*+	c #3D7C5A",
"=+	c #418762",
"-+	c #3C7657",
";+	c #5C947B",
">+	c #418561",
",+	c #498968",
"'+	c #438764",
")+	c #3D7A5A",
"!+	c #36644A",
"                                                                                                ",
"                                                                                                ",
"                                                                                                ",
"                                                                                                ",
"                                                                                                ",
"                                                                                                ",
"                                                                                                ",
"                                                                                                ",
"                                            . + @ @ #                                           ",
"                                          $ % & * * = -                                         ",
"                                      ; > , ' ) ! ! ~ { @ ] -                                   ",
"                                  ^ / ( _ : < [ } | 1 ~ * * 2 -                                 ",
"                                  3 4 5 6 6 6 7 6 6 8 9 ! ! 0 a                                 ",
"                                  b c d e e 6 6 6 6 f g h | i j                                 ",
"                                k l m n 6 6 o p p o 6 6 < p q r                                 ",
"                              $ l s n t 7 6 u v v u 6 6 u w x y z                               ",
"                              b A 5 6 6 e 6 B C C B e e B C D B E F                             ",
"                              b c d 6 e e 6 G H H G e e G H I J K F                             ",
"                              b A 5 6 6 7 6 L M M L e e L M N L E F                             ",
"                              b A 5 6 6 6 6 O L L O 6 6 O L P O E Q                             ",
"                              b A 5 6 6 6 6 t n n t t n n t R 6 E Q                             ",
"                              b A 5 6 6 6 6 S T T S U m T n R e E Q                             ",
"                              b c d 7 e e 6 V W X Y Z X ` Z P O E Q                             ",
"                              b A 5 6 6 e 6  ...+.@.#.+.$.#.N L E F                             ",
"                              %.&.*.u =.e 6 L -.;.>.,.;.'.,.).G !.F                             ",
"                              ~.{.].v ^.6 7 O L /.(._./.:._.D <.K F                             ",
"                            [.}.|.1.2.3.p o 7 6 u v 4.u u 4.5.u !.Q   # 6.                      ",
"                          $ 7.8.9.0.a.b.v u 6 e < p p < < p c.o E Q d.e.2 f.                    ",
"                          b g.h.i.j.k.l.m.B 6 e 6 6 6 6 6 6 e 6 n.o.p.q.& r.                    ",
"                          b s.t.u.v.w.x.H G 6 e 6 7 7 6 6 7 e 6 y.z.'.A.B.C.                    ",
"                          $ b b b D.E.F...G.6 e 6 6 6 6 6 6 H.n Z I.J.K.^                       ",
"                                  L.M.N.O.P.6 e 6 6 6 6 6 6 n m Q.R.                            ",
"                                S.T.U.V.m n 6 6 6 6 6 6 e 6 : , W.                              ",
"                              X.b Y.Z.s n t 6 6 6 6 6 6 e 6 _ `.                                ",
"                             +.+++@+g.#+n H.e e t n 5 5 d 5 ( ;                                 ",
"                          $ .+$+%+@+s.g.m n 6 6 n m A 4 c A /                                   ",
"                        &+*+@+=+$+.+3 -+l s ;+d #+g.@+%+$+.+^                                   ",
"                      ^ .+$+@+>+.+ +    k l A c ,+'+++++)+!+                                    ",
"                      ^ b b b b $         $ b b b b b b ^                                       ",
"                                                                                                ",
"                                                                                                ",
"                                                                                                ",
"                                                                                                ",
"                                                                                                ",
"                                                                                                ",
"                                                                                                ",
"                                                                                                ",
"                                                                                                "};
