/* XPM */
static char * key32_xpm[] = {
"32 32 307 2",
"  	c #595356",
". 	c #3A333A",
"+ 	c #3B343B",
"@ 	c #3A343B",
"# 	c #41383E",
"$ 	c #4A3E43",
"% 	c #4A3F44",
"& 	c #40383E",
"* 	c #4E4146",
"= 	c #4A3F43",
"- 	c #3A343A",
"; 	c #6B6163",
"> 	c #4A474B",
", 	c #252424",
"' 	c #2C2828",
") 	c #2F2A29",
"! 	c #2F2A2A",
"~ 	c #372F2F",
"{ 	c #433736",
"] 	c #483B3A",
"^ 	c #423736",
"/ 	c #362E2D",
"( 	c #403532",
"_ 	c #675B60",
": 	c #4B474B",
"< 	c #3A3131",
"[ 	c #403635",
"} 	c #413635",
"| 	c #433737",
"1 	c #674A41",
"2 	c #61423E",
"3 	c #45373A",
"4 	c #463A39",
"5 	c #403535",
"6 	c #4D3E3C",
"7 	c #604B46",
"8 	c #6B5F62",
"9 	c #4E494D",
"0 	c #A89C52",
"a 	c #EFD55C",
"b 	c #C07E31",
"c 	c #7C4E3E",
"d 	c #473B3A",
"e 	c #574542",
"f 	c #6D554F",
"g 	c #6E6063",
"h 	c #524C4F",
"i 	c #4D3F3F",
"j 	c #EBCA50",
"k 	c #EFCB49",
"l 	c #D48D2B",
"m 	c #A87C41",
"n 	c #9C7642",
"o 	c #8D6843",
"p 	c #815B42",
"q 	c #755340",
"r 	c #6A4A41",
"s 	c #5F4441",
"t 	c #573F3F",
"u 	c #584643",
"v 	c #6E554F",
"w 	c #6E5F63",
"x 	c #544D50",
"y 	c #493C3C",
"z 	c #DAB74B",
"A 	c #D68F2A",
"B 	c #BD772A",
"C 	c #E3AF31",
"D 	c #E0B73E",
"E 	c #EEC03F",
"F 	c #F3C63E",
"G 	c #F1C543",
"H 	c #EBC346",
"I 	c #E7C147",
"J 	c #D6A83F",
"K 	c #614341",
"L 	c #6D5E62",
"M 	c #483B3B",
"N 	c #4D3D3D",
"O 	c #74573E",
"P 	c #E7A51C",
"Q 	c #805846",
"R 	c #503A4F",
"S 	c #8D6642",
"T 	c #F6B218",
"U 	c #C5852D",
"V 	c #7B5847",
"W 	c #A3763D",
"X 	c #ECA91D",
"Y 	c #66463F",
"Z 	c #6C5E61",
"` 	c #514C4F",
" .	c #654D3F",
"..	c #E9A51F",
"+.	c #734943",
"@.	c #4B3752",
"#.	c #765A4B",
"$.	c #F3B424",
"%.	c #C6862D",
"&.	c #543B4F",
"*.	c #694F4B",
"=.	c #EBA920",
"-.	c #704A3E",
";.	c #5B4740",
">.	c #F0AB1B",
",.	c #B57734",
"'.	c #9D7243",
").	c #CCB859",
"!.	c #F8C83E",
"~.	c #E9A51D",
"{.	c #BC9146",
"].	c #B49349",
"^.	c #EFC848",
"/.	c #7F523C",
"(.	c #6B5E61",
"_.	c #4F3F3D",
":.	c #F0AD1E",
"<.	c #F7B522",
"[.	c #F6C63B",
"}.	c #F7CA3F",
"|.	c #F7B217",
"1.	c #F8C433",
"2.	c #F8CD43",
"3.	c #F8C637",
"4.	c #F6B624",
"5.	c #8E5D3B",
"6.	c #574642",
"7.	c #6B5D61",
"8.	c #4B3C3E",
"9.	c #EAAA1E",
"0.	c #B88235",
"a.	c #AB7F3C",
"b.	c #E2A327",
"c.	c #F7C338",
"d.	c #DECA5C",
"e.	c #837653",
"f.	c #937247",
"g.	c #EDAB1F",
"h.	c #976438",
"i.	c #6A5D61",
"j.	c #4A3B3D",
"k.	c #E4A424",
"l.	c #9B653B",
"m.	c #4C3850",
"n.	c #9D7541",
"o.	c #F8C335",
"p.	c #A67E45",
"q.	c #4B3852",
"r.	c #4D3850",
"s.	c #C68832",
"t.	c #A0663B",
"u.	c #534340",
"v.	c #654F4A",
"w.	c #685C5F",
"x.	c #493B3C",
"y.	c #DFB43F",
"z.	c #C49B44",
"A.	c #906443",
"B.	c #A67639",
"C.	c #F5B726",
"D.	c #B98135",
"E.	c #6B4649",
"F.	c #694649",
"G.	c #C98933",
"H.	c #A96A33",
"I.	c #744C40",
"J.	c #4C3E3C",
"K.	c #544340",
"L.	c #64585D",
"M.	c #4C484B",
"N.	c #AB7F39",
"O.	c #E2BD43",
"P.	c #E9BF45",
"Q.	c #EFAC1D",
"R.	c #F5CE44",
"S.	c #EDC845",
"T.	c #D38C2A",
"U.	c #D28D2C",
"V.	c #BE772E",
"W.	c #CF912F",
"X.	c #C0812D",
"Y.	c #644541",
"Z.	c #493B3D",
"`.	c #64585C",
" +	c #4A3C3C",
".+	c #54413E",
"++	c #58443F",
"@+	c #634C40",
"#+	c #6F5141",
"$+	c #74533E",
"%+	c #D5B64B",
"&+	c #D2A947",
"*+	c #C3822D",
"=+	c #CE8B29",
"-+	c #675A5E",
";+	c #4B484B",
">+	c #4B3C3D",
",+	c #8F6E3C",
"'+	c #C9A247",
")+	c #ECC54A",
"!+	c #DC9627",
"~+	c #975F38",
"{+	c #675A5D",
"]+	c #A4803C",
"^+	c #D19532",
"/+	c #F8D64D",
"(+	c #EBAB27",
"_+	c #975E38",
":+	c #62585B",
"<+	c #52403E",
"[+	c #E0AB30",
"}+	c #FBD950",
"|+	c #EAAB27",
"1+	c #975E36",
"2+	c #62575B",
"3+	c #51403E",
"4+	c #E0AA33",
"5+	c #FAD950",
"6+	c #EAAB28",
"7+	c #655A5E",
"8+	c #DFAB30",
"9+	c #EAAA25",
"0+	c #975D36",
"a+	c #675A5F",
"b+	c #54423F",
"c+	c #E0AB33",
"d+	c #FBD94F",
"e+	c #955D38",
"f+	c #665A5E",
"g+	c #745743",
"h+	c #694C3E",
"i+	c #FADA50",
"j+	c #E5A627",
"k+	c #945938",
"l+	c #63595D",
"m+	c #4D484B",
"n+	c #9E9151",
"o+	c #F3DC57",
"p+	c #B4843D",
"q+	c #9B703A",
"r+	c #F3B728",
"s+	c #F2D352",
"t+	c #E6A729",
"u+	c #955E38",
"v+	c #5F575A",
"w+	c #4A464A",
"x+	c #7A6D4A",
"y+	c #F8D853",
"z+	c #F6B620",
"A+	c #F4CA42",
"B+	c #F3AF18",
"C+	c #F1AC1B",
"D+	c #F2B42A",
"E+	c #FAD94F",
"F+	c #E8AA26",
"G+	c #935B39",
"H+	c #5D5559",
"I+	c #94854D",
"J+	c #D79E2E",
"K+	c #F4AD19",
"L+	c #E6A022",
"M+	c #DC9829",
"N+	c #D6A038",
"O+	c #E6B139",
"P+	c #7E583D",
"Q+	c #5C5559",
"R+	c #B7A04F",
"S+	c #F4AF1B",
"T+	c #F0A91D",
"U+	c #F4AF19",
"V+	c #BB782F",
"W+	c #674840",
"X+	c #78573F",
"Y+	c #5E565A",
"Z+	c #A4743A",
"`+	c #C68F2F",
" @	c #F5B016",
".@	c #DD9629",
"+@	c #68463E",
"@@	c #2E2929",
"#@	c #403534",
"$@	c #9D7339",
"%@	c #E7A124",
"&@	c #865E3E",
"*@	c #473A39",
"=@	c #64595C",
"-@	c #6B4F40",
";@	c #645A5C",
">@	c #4A3C39",
",@	c #53423F",
"'@	c #614C48",
")@	c #705751",
"!@	c #615153",
"~@	c #68504D",
"{@	c #69524E",
"]@	c #6A534F",
"^@	c #634D4B",
"/@	c #534342",
"(@	c #483B3D",
"_@	c #483C3F",
":@	c #624D4C",
"<@	c #634E4B",
"[@	c #534243",
"}@	c #624D4B",
"|@	c #6D5551",
"1@	c #6F5653",
"2@	c #775C55",
"  . + @ + # $ % # + @ + + @ + & $ * * * * $ & # $ = # + @ . - ; ",
"> , ' ) ! ~ { { ~ ! ) ! ! ) ! ~ { ] ] ] ] ^ ~ ~ ^ { ~ ! ) / ( _ ",
": ' < [ } | 1 2 3 } [ } } [ } { 4 ] ] ] ] 4 { { 4 4 { 5 [ 6 7 8 ",
"9 ~ { ] ] 0 a b c ] ] ] ] ] ] ] ] ] ] ] ] ] ] ] ] ] ] d ] e f g ",
"h { 4 ] i j k l m n o p q r s t ] ] ] ] ] ] ] ] ] ] ] ] ] u v w ",
"x ] ] ] y z A B C D E F G H I J K ] ] ] ] ] ] ] ] ] ] d ] e f L ",
"x ] ] M ] N O P Q R S T U V W X Y ] ] ] ] ] ] ] ] ] ] d ] e f Z ",
"` ^ 4 ] ] ]  ...+.@.#.$.%.&.*.=.-.] ] ] ] ] ] ] ] ] ] d ] e f Z ",
"9 ~ { ] ] ] ;.>.,.'.).!.~.{.].^./.] ] ] ] ] ] ] ] ] ] d ] e f (.",
"9 ~ { ] ] ] _.:.<.[.}.|.1.2.3.4.5.] ] ] ] ] ] ] ] ] ] d ] 6.f 7.",
"` ^ 4 ] ] ] 8.9.0.a.b.c.d.e.f.g.h.M ] ] ] ] ] ] ] ] ] d ] e f i.",
"h { 4 ] ] ] j.k.l.m.n.o.p.q.r.s.t.M ] ] ] ] ] ] ] ] ] d ] u.v.w.",
"9 ~ { ] ] ] x.y.z.A.B.C.D.E.F.G.H.I.x.] ] ] ] ] ] ] ] ] ] J.K.L.",
"M.! } ] ] ] ] N.O.P.Q.R.S.T.U.V.W.X.Y.Z.] ] ] ] ] ] ] ] ] 6 K.`.",
"M.) [ ] ] ] ] M  +N .+++@+#+$+%+&+*+=+j.] ] ] ] ] ] ] d ] u.v.-+",
";+) [ ] ] ] ] ] ] ] ] ] ] ] >+,+'+)+!+~+j.] ] ] ] ] ] d ] u.v.{+",
";+! } ] ] ] ] ] ] ] ] ] ] ] ] j.]+^+/+(+_+x.] ] ] ] ] ] ] 6 K.:+",
"9 ~ { ] ] ] ] ] ] ] ] ] ] ] ] ] ] <+[+}+|+1+x.] ] ] ] ] ] J.K.2+",
"h { 4 ] ] ] ] ] ] ] ] ] ] ] ] ] ] ] 3+4+5+6+_+x.] ] ] d ] u.v.7+",
"x ] ] ] ] ] ] ] ] ] ] ] ] ] ] ] ] ] ] <+8+5+9+0+x.] ] d ] 6.f a+",
"x ] ] ] ] ] ] ] ] ] ] ] ] ] ] ] ] ] ] ] b+c+d+9+e+x.] d ] 6.f f+",
"h { 4 ] ] ] ] ] ] ] ] ] ] ] ] ] ] ] ] ] g+h+4+i+j+k+Z.d ] K.v.l+",
"m+~ { ] ] ] ] ] ] ] ] ] ] ] ] ] ] ] ] n+o+p+q+r+s+t+u+x.] J.K.v+",
"w+! } ] ] ] ] ] ] ] ] ] ] ] ] ] ] ] x+y+z+A+B+C+D+E+F+G+M ] d H+",
"w+) [ ] ] ] ] ] ] ] ] ] ] ] ] ] ] ] x.I+J+K+L+L+M+N+O+P+] ] d Q+",
"w+! } ] ] ] ] ] ] ] ] ] ] ] ] ] ] ] ] M R+S+T+U+V+W+X+] ] J.K.Y+",
";+! } ] ] ] ] ] ] ] ] ] ] ] ] ] ] ] ] M x.Z+`+ @.@+@] d ] K.v.:+",
"M.@@#@d ] d ] ] ] ] d d ] ] d d d d d d d d $@%@&@d d *@d e f =@",
": ! } ] ] ] ] ] ] ] ] ] ] ] ] ] ] ] ] ] ] ] x.-@] ] ] d ] 6.f ;@",
"x >@,@6.6.K.J.] ] 6 K.u.6 J.u.e 6.e e 6.e u.J.J.u.e 6.e e '@)@;@",
"!@~@{@]@]@^@/@(@_@/@:@<@[@/@}@]@]@]@]@]@]@^@/@/@^@]@]@]@]@|@1@l+",
"2@2@2@2@2@f e d d u f f u e f 2@2@2@2@2@2@f e e f 2@2@2@2@2@2@2@"};
