/* XPM */
static char * ladder32_xpm[] = {
"32 32 222 2",
"  	c #222222",
". 	c #212222",
"+ 	c #302A2A",
"@ 	c #413635",
"# 	c #2F2A2A",
"$ 	c #483B3A",
"% 	c #403535",
"& 	c #252424",
"* 	c #2C2828",
"= 	c #2F2A29",
"- 	c #372F2F",
"; 	c #433736",
"> 	c #423736",
", 	c #362E2D",
"' 	c #403532",
") 	c #453835",
"! 	c #3A3131",
"~ 	c #403635",
"{ 	c #463A39",
"] 	c #4D3E3C",
"^ 	c #604B46",
"/ 	c #69514C",
"( 	c #473B3A",
"_ 	c #574542",
": 	c #6D554F",
"< 	c #775C55",
"[ 	c #584643",
"} 	c #6E554F",
"| 	c #785C55",
"1 	c #463B3A",
"2 	c #463A3A",
"3 	c #473A3A",
"4 	c #583E38",
"5 	c #6F4437",
"6 	c #724739",
"7 	c #634640",
"8 	c #574643",
"9 	c #564543",
"0 	c #62463F",
"a 	c #473A39",
"b 	c #704436",
"c 	c #9C5230",
"d 	c #A15737",
"e 	c #845648",
"f 	c #6C554F",
"g 	c #372F2E",
"h 	c #4C3E3C",
"i 	c #544340",
"j 	c #554543",
"k 	c #824E3C",
"l 	c #B15A2F",
"m 	c #B35C32",
"n 	c #8A5644",
"o 	c #75554C",
"p 	c #885A4C",
"q 	c #925D4C",
"r 	c #925E4C",
"s 	c #8B5D4F",
"t 	c #7F5D53",
"u 	c #B55F37",
"v 	c #814D3C",
"w 	c #584642",
"x 	c #534340",
"y 	c #654F4A",
"z 	c #8D5847",
"A 	c #B45D34",
"B 	c #AF582A",
"C 	c #7A4631",
"D 	c #714536",
"E 	c #A05737",
"F 	c #B66037",
"G 	c #B65F36",
"H 	c #A75E41",
"I 	c #8C5846",
"J 	c #53423F",
"K 	c #614D48",
"L 	c #705751",
"M 	c #725953",
"N 	c #6D554E",
"O 	c #AC5524",
"P 	c #703A22",
"Q 	c #613523",
"R 	c #964A24",
"S 	c #AC5424",
"T 	c #AD5524",
"U 	c #9D5432",
"V 	c #7F5244",
"W 	c #8A5643",
"X 	c #B25C33",
"Y 	c #745A53",
"Z 	c #6C544F",
"` 	c #654F49",
" .	c #5D4945",
"..	c #5E4A46",
"+.	c #68514C",
"@.	c #463936",
"#.	c #624C47",
"$.	c #755B54",
"%.	c #6B544E",
"&.	c #564440",
"*.	c #7A4632",
"=.	c #AF5729",
"-.	c #412921",
";.	c #603422",
">.	c #653928",
",.	c #533931",
"'.	c #7A4531",
").	c #6D544E",
"!.	c #544440",
"~.	c #53423D",
"{.	c #644E49",
"].	c #3E3331",
"^.	c #5C4943",
"/.	c #67514C",
"(.	c #463835",
"_.	c #713B23",
":.	c #AD5523",
"<.	c #422A22",
"[.	c #703B23",
"}.	c #B35D33",
"|.	c #5C4843",
"1.	c #3B3331",
"2.	c #3E3431",
"3.	c #2D2827",
"4.	c #3F3431",
"5.	c #574540",
"6.	c #67514B",
"7.	c #AC5423",
"8.	c #954A23",
"9.	c #3E3330",
"0.	c #282727",
"a.	c #2C2827",
"b.	c #52413D",
"c.	c #202121",
"d.	c #5A4843",
"e.	c #6A3723",
"f.	c #A24F24",
"g.	c #A14F25",
"h.	c #964B24",
"i.	c #A24F25",
"j.	c #1B2122",
"k.	c #212121",
"l.	c #2D2927",
"m.	c #3C3331",
"n.	c #2F2928",
"o.	c #5C3124",
"p.	c #8C4226",
"q.	c #8C4227",
"r.	c #623523",
"s.	c #5B3023",
"t.	c #1D2122",
"u.	c #352E2C",
"v.	c #4E3E3C",
"w.	c #242323",
"x.	c #1E2222",
"y.	c #532C24",
"z.	c #7E3A27",
"A.	c #342523",
"B.	c #482A23",
"C.	c #2E2929",
"D.	c #403534",
"E.	c #1D2121",
"F.	c #522C24",
"G.	c #7D3927",
"H.	c #7C3927",
"I.	c #482923",
"J.	c #6C3426",
"K.	c #483B39",
"L.	c #473937",
"M.	c #1C2021",
"N.	c #1F2021",
"O.	c #4D2924",
"P.	c #753528",
"Q.	c #743529",
"R.	c #4E2A25",
"S.	c #6D3526",
"T.	c #7D3A27",
"U.	c #4B3C39",
"V.	c #534240",
"W.	c #202222",
"X.	c #432525",
"Y.	c #632A2B",
"Z.	c #622A2B",
"`.	c #492A23",
" +	c #6A524C",
".+	c #6C544E",
"++	c #50403D",
"@+	c #53423E",
"#+	c #463935",
"$+	c #4F3434",
"%+	c #5B2930",
"&+	c #56222B",
"*+	c #3A2125",
"=+	c #292122",
"-+	c #342124",
";+	c #3B2125",
">+	c #3D3331",
",+	c #69524C",
"'+	c #674945",
")+	c #633438",
"!+	c #56222C",
"~+	c #352225",
"{+	c #4B2229",
"]+	c #55222C",
"^+	c #2E2A29",
"/+	c #6C4F4B",
"(+	c #6A4242",
"_+	c #61393A",
":+	c #513837",
"<+	c #513937",
"[+	c #68393C",
"}+	c #69393C",
"|+	c #544341",
"1+	c #604946",
"2+	c #70524D",
"3+	c #6C524C",
"4+	c #6B524C",
"5+	c #72524D",
"6+	c #574642",
"7+	c #4A3C39",
"8+	c #614C48",
"9+	c #755A53",
"      .   + @ @ +   .     .   # @ $ $ $ $ % # + % @ +   .       ",
". & * = # - ; ; - # = # # = # - ; $ $ $ $ > - - > ; - # = , ' ) ",
"  * ! ~ @ ; { { ; @ ~ @ @ ~ @ ; { $ $ $ $ { ; ; { { ; % ~ ] ^ / ",
"# - ; $ $ $ $ $ $ $ $ $ $ $ $ $ $ $ $ $ $ $ $ $ $ $ $ ( $ _ : < ",
"@ ; { $ $ $ $ $ $ $ $ $ $ $ $ $ $ $ $ $ $ $ $ $ $ $ $ $ $ [ } | ",
"$ $ $ $ $ $ $ ( 1 2 ( ( ( ( ( ( ( ( ( ( ( ( 2 1 ( $ $ ( $ _ : < ",
"$ $ $ $ $ $ $ $ $ $ $ $ $ $ $ $ $ $ $ $ $ $ $ $ $ $ $ ( $ _ : < ",
"% > { $ $ 3 ( 4 5 6 7 8 9 9 9 9 9 9 9 9 _ 0 6 5 4 ( 3 a $ _ : < ",
"# - ; $ $ 1 $ b c d e : f : : : : : : f : e d c b $ 1 ( $ _ : < ",
"+ g > h i j [ k l m n o p q r q q r q s t r u l v w 9 x h _ : < ",
"% > { i y f : z A B C D E u F u u G u H s q u A I : f y i _ : < ",
"@ a J K L M N n m O P Q R S T S S S S U V W X u q Y Z `  ...+.: ",
"+ @.#.L $.%.&.*.=.O P -.;.P P P P P P >.,.'.B u r ).!.~.{.+..._ ",
"  ].^.: Y /.(._.:.T _.<.Q [._.[.[._.[.Q <.P T }.n |.1.2.|.`  .[ ",
". 3.4.5.N 6.) P 7.O [.Q R S T S S T S 8.;.P S B C 9.0.a.].b.` : ",
". c.  4.^.d.4.e.f.g.e.Q h.O T O O T O h.Q e.g.i.e.  j.c.  ' ^ : ",
"  k.c.l.].m.n.o.p.q.o.<.r.[._.[.[._.[.r.<.o.q.p.s.c.t.c.c.u.v.[ ",
"# * w.c.. x.  y.z.z.y.A.B.y.y.y.y.y.y.B.A.y.z.z.y.  x.k.c.C.D.( ",
"@ ! * . c.E.. F.G.H.F.I.J.H.G.H.H.G.H.J.I.F.H.G.F.  x..   # % ( ",
"$ K.L.2.3.M.N.O.P.Q.R.B.S.T.z.T.T.z.T.S.B.R.Q.P.O.N.M.3.2.U.i [ ",
"$ V.#.^.4.W.c.X.Y.Z.X.A.`.y.y.y.y.y.y.`.A.X.Z.Y.X.c.W.].^. +.+: ",
"@ ++{.` @+#+) $+%+&+*+=+-+*+;+*+*+;+*+-+=+*+&+%+$+) #+b.` : : : ",
"# >+++ .y ,+,+'+)+!+*+~+{+]+!+]+]+!+]+{+~+*+!+)+'+,+,+`  .[ [ [ ",
"  ^+@ i y : : /+(+_+:+<+_+[+}+[+[+}+[+_+<+:+_+(+/+: : y i $ a ( ",
". C.% h |+[ [ 1+/+2+3+4+2+5+5+5+5+5+5+2+4+3+2+/+1+[ [ |+h ( 3 ( ",
"  # @ $ $ ( $ i y : : : : : : : : : : : : : : y i $ ( $ $ h i _ ",
"  # @ $ $ 3 ( h i [ [ [ [ [ [ [ [ [ [ [ [ [ [ i h ( 3 a $ i y : ",
"c.C.D.( $ ( $ $ $ $ ( ( $ $ ( ( ( ( ( ( ( ( $ $ ( ( ( a ( _ : < ",
"  # @ $ $ $ $ $ ( ( ( ( ( ( ( ( ( ( ( ( ( ( ( ( $ $ $ ( $ 6+: < ",
") 7+J 6+6+i h $ $ ] i x ] h x _ 6+_ _ 6+_ x h h x _ 6+_ _ 8+L < ",
"/  +.+: : y i ( ( i y y i i y : : : : : : y i i y : : : : L 9+< ",
"< < < < < : _ ( ( [ : : [ _ : < < < < < < : _ _ : < < < < < < < "};
