/* XPM */
static char * wall48_xpm[] = {
"48 48 443 2",
"  	c #534B57",
". 	c #544B58",
"+ 	c #4C444F",
"@ 	c #2C262A",
"# 	c #0A0702",
"$ 	c #101010",
"% 	c #2E3133",
"& 	c #5A6C77",
"* 	c #6D808F",
"= 	c #5B5C68",
"- 	c #534854",
"; 	c #534B56",
"> 	c #544B57",
", 	c #0A0602",
"' 	c #5A6D77",
") 	c #6D818F",
"! 	c #5B5D69",
"~ 	c #534955",
"{ 	c #534C57",
"] 	c #443F47",
"^ 	c #433E46",
"/ 	c #403941",
"( 	c #2A2329",
"_ 	c #273035",
": 	c #51616B",
"< 	c #5B6D78",
"[ 	c #56646E",
"} 	c #494A52",
"| 	c #443D45",
"1 	c #443F46",
"2 	c #433E45",
"3 	c #2A2328",
"4 	c #272F35",
"5 	c #51606A",
"6 	c #5B6C77",
"7 	c #3F3840",
"8 	c #292228",
"9 	c #56656E",
"0 	c #494A53",
"a 	c #443E46",
"b 	c #444047",
"c 	c #2F3030",
"d 	c #2E2F2F",
"e 	c #373539",
"f 	c #48424B",
"g 	c #352D36",
"h 	c #323C43",
"i 	c #627481",
"j 	c #576670",
"k 	c #323537",
"l 	c #2F2F30",
"m 	c #373538",
"n 	c #352D34",
"o 	c #354048",
"p 	c #677D8A",
"q 	c #333638",
"r 	c #39363A",
"s 	c #4D4550",
"t 	c #3A313A",
"u 	c #2F3031",
"v 	c #2F3131",
"w 	c #2D2F2E",
"x 	c #303031",
"y 	c #363437",
"z 	c #242225",
"A 	c #28292F",
"B 	c #52535F",
"C 	c #4A4B54",
"D 	c #2D2E2E",
"E 	c #221E20",
"F 	c #344048",
"G 	c #687D8B",
"H 	c #5B6C76",
"I 	c #303233",
"J 	c #2D2D2D",
"K 	c #2D2E2D",
"L 	c #383639",
"M 	c #4D4650",
"N 	c #3A333C",
"O 	c #292A30",
"P 	c #52535E",
"Q 	c #4A4B53",
"R 	c #2D2F2F",
"S 	c #2E3030",
"T 	c #1C1D1C",
"U 	c #241F25",
"V 	c #4A414D",
"W 	c #453E47",
"X 	c #1A1A18",
"Y 	c #2D333A",
"Z 	c #5B6672",
"` 	c #515963",
" .	c #303132",
"..	c #333335",
"+.	c #403C42",
"@.	c #2F2B30",
"#.	c #252025",
"$.	c #4A424C",
"%.	c #453F46",
"&.	c #2E2E2E",
"*.	c #2B2B2B",
"=.	c #191A19",
"-.	c #242026",
";.	c #4B434F",
">.	c #454048",
",.	c #252127",
"'.	c #4C454F",
").	c #464149",
"!.	c #2C2C2C",
"~.	c #1A1B1A",
"{.	c #4B444E",
"].	c #454047",
"^.	c #2E302F",
"/.	c #2B2C2C",
"(.	c #21201D",
"_.	c #0D0C07",
":.	c #241F26",
"<.	c #211F1D",
"[.	c #4B424D",
"}.	c #453F47",
"|.	c #0D0B06",
"1.	c #242025",
"2.	c #1D1B17",
"3.	c #070500",
"4.	c #1D1A17",
"5.	c #070400",
"6.	c #454148",
"7.	c #2B2C2B",
"8.	c #282827",
"9.	c #1A1815",
"0.	c #060400",
"a.	c #201C21",
"b.	c #453D47",
"c.	c #2C2D2D",
"d.	c #282727",
"e.	c #1A1715",
"f.	c #060300",
"g.	c #2B2D2D",
"h.	c #2C2E2E",
"i.	c #1D1B18",
"j.	c #1E1B18",
"k.	c #0C0A08",
"l.	c #000000",
"m.	c #0E0B0D",
"n.	c #272226",
"o.	c #21201E",
"p.	c #262625",
"q.	c #211F1E",
"r.	c #1D1A18",
"s.	c #272225",
"t.	c #403A41",
"u.	c #363538",
"v.	c #21201F",
"w.	c #080500",
"x.	c #050300",
"y.	c #040300",
"z.	c #2A252A",
"A.	c #363038",
"B.	c #252326",
"C.	c #1D1E1E",
"D.	c #1C1C1C",
"E.	c #12100E",
"F.	c #171716",
"G.	c #1A1A19",
"H.	c #0A0200",
"I.	c #040000",
"J.	c #080400",
"K.	c #040200",
"L.	c #2A242A",
"M.	c #050200",
"N.	c #363138",
"O.	c #252426",
"P.	c #1D1F1E",
"Q.	c #1C1D1D",
"R.	c #171615",
"S.	c #1E1F1F",
"T.	c #252026",
"U.	c #191619",
"V.	c #060504",
"W.	c #020101",
"X.	c #060503",
"Y.	c #1A1F22",
"Z.	c #2F3A41",
"`.	c #252126",
" +	c #19161A",
".+	c #080808",
"++	c #0F0F0E",
"@+	c #4B434E",
"#+	c #4A424D",
"$+	c #383139",
"%+	c #161210",
"&+	c #191918",
"*+	c #3D464C",
"=+	c #5F737F",
"-+	c #5C6773",
";+	c #4C4550",
">+	c #4A434E",
",+	c #38323A",
"'+	c #161211",
")+	c #1D1F20",
"!+	c #2B2E2F",
"~+	c #433D45",
"{+	c #393239",
"]+	c #1C1A1E",
"^+	c #404D55",
"/+	c #5A6B76",
"(+	c #39323A",
"_+	c #1C1A1F",
":+	c #404E55",
"<+	c #5A6C76",
"[+	c #413D44",
"}+	c #242228",
"|+	c #4F5E69",
"1+	c #647683",
"2+	c #424B51",
"3+	c #413E44",
"4+	c #453F48",
"5+	c #242328",
"6+	c #4E5E68",
"7+	c #343335",
"8+	c #312F32",
"9+	c #19181B",
"0+	c #42424C",
"a+	c #545560",
"b+	c #3A3B3F",
"c+	c #2C2D2C",
"d+	c #343436",
"e+	c #313033",
"f+	c #41424B",
"g+	c #292A29",
"h+	c #1F1E1C",
"i+	c #0F0E0E",
"j+	c #3B333D",
"k+	c #4D444E",
"l+	c #383539",
"m+	c #292B2A",
"n+	c #1F1F1D",
"o+	c #100E0F",
"p+	c #3B343D",
"q+	c #524955",
"r+	c #252423",
"s+	c #15110D",
"t+	c #0B0909",
"u+	c #3C353F",
"v+	c #4E4650",
"w+	c #252524",
"x+	c #15110E",
"y+	c #3B353E",
"z+	c #252422",
"A+	c #14100B",
"B+	c #0B0808",
"C+	c #3C353E",
"D+	c #38363A",
"E+	c #14100C",
"F+	c #0B0809",
"G+	c #2A2A29",
"H+	c #272726",
"I+	c #2A2B2A",
"J+	c #252523",
"K+	c #1C1A18",
"L+	c #0C0906",
"M+	c #060404",
"N+	c #2B262B",
"O+	c #3F3940",
"P+	c #3B383D",
"Q+	c #2A2A2A",
"R+	c #1C1B19",
"S+	c #060405",
"T+	c #2B262C",
"U+	c #3E373F",
"V+	c #282929",
"W+	c #201F1D",
"X+	c #252625",
"Y+	c #21211F",
"Z+	c #16130E",
"`+	c #15110C",
" @	c #14100A",
".@	c #140E08",
"+@	c #0B0805",
"@@	c #090602",
"#@	c #443C46",
"$@	c #3D383F",
"%@	c #292A2A",
"&@	c #16120E",
"*@	c #140F0A",
"=@	c #3D3940",
"-@	c #2A2B2B",
";@	c #201F1E",
">@	c #0C0806",
",@	c #0D0908",
"'@	c #141314",
")@	c #100F0F",
"!@	c #0C0B0B",
"~@	c #0F0F0F",
"{@	c #0C0B0A",
"]@	c #070604",
"^@	c #0C0D0E",
"/@	c #0F1112",
"(@	c #080607",
"_@	c #060406",
":@	c #070505",
"<@	c #120F11",
"[@	c #221D23",
"}@	c #1E1B20",
"|@	c #141415",
"1@	c #0C0A0B",
"2@	c #060403",
"3@	c #070504",
"4@	c #1D1A1F",
"5@	c #111111",
"6@	c #0B0B0B",
"7@	c #151719",
"8@	c #121315",
"9@	c #0C0909",
"0@	c #090607",
"a@	c #060506",
"b@	c #0A0708",
"c@	c #3D3640",
"d@	c #363039",
"e@	c #1A1618",
"f@	c #050302",
"g@	c #191919",
"h@	c #505F6A",
"i@	c #42434C",
"j@	c #3C343D",
"k@	c #3B343E",
"l@	c #3D363F",
"m@	c #080502",
"n@	c #0B0501",
"o@	c #2C3338",
"p@	c #4D5D67",
"q@	c #4A545E",
"r@	c #3D3740",
"s@	c #3C363F",
"t@	c #4E4651",
"u@	c #4E4652",
"v@	c #48414B",
"w@	c #342E33",
"x@	c #1A1416",
"y@	c #3D474C",
"z@	c #342D33",
"A@	c #110F11",
"B@	c #4C5961",
"C@	c #637783",
"D@	c #5E6974",
"E@	c #4E4852",
"F@	c #4D4651",
"G@	c #4E4751",
"H@	c #373639",
"I@	c #3D393F",
"J@	c #342C34",
"K@	c #303A41",
"L@	c #3D393E",
"M@	c #48414A",
"N@	c #342B33",
"O@	c #443C45",
"P@	c #232127",
"Q@	c #4C5D67",
"R@	c #4D5A62",
"S@	c #3D4146",
"T@	c #38373A",
"U@	c #38373B",
"V@	c #2C2E2D",
"W@	c #333234",
"X@	c #413C43",
"Y@	c #2F292F",
"Z@	c #2E343B",
"`@	c #2E292F",
" #	c #201E23",
".#	c #5E6874",
"+#	c #2A2927",
"@#	c #2E2F30",
"##	c #3C3640",
"$#	c #4E4752",
"%#	c #0D0C06",
"&#	c #4B424E",
"*#	c #3C343E",
"=#	c #141412",
"-#	c #22211F",
";#	c #120E09",
">#	c #090707",
",#	c #14120F",
"'#	c #050402",
")#	c #020202",
"!#	c #1B1719",
"~#	c #413D43",
"{#	c #262726",
"]#	c #1E1B19",
"^#	c #1D1B19",
"/#	c #120F0D",
"(#	c #0C0804",
"_#	c #0A0400",
":#	c #181516",
"<#	c #352F36",
"[#	c #2F2C31",
"}#	c #1C1E1D",
"|#	c #161615",
"1#	c #0D0907",
"2#	c #0D0906",
"3#	c #0D0805",
"4#	c #0C0704",
"5#	c #060402",
"6#	c #2F3A40",
"7#	c #231F25",
"8#	c #050403",
"9#	c #010100",
"0#	c #080807",
"a#	c #0E0E0D",
"b#	c #3D474D",
"c#	c #2B2F30",
"d#	c #544C58",
"e#	c #222120",
"f#	c #120E0A",
"g#	c #262624",
"h#	c #272625",
"i#	c #1E1C18",
"j#	c #262524",
"k#	c #141210",
"l#	c #1D191B",
"m#	c #2B2529",
"n#	c #1F1F1F",
"o#	c #171715",
"p#	c #12110E",
"q#	c #181816",
"r#	c #0E0B06",
"s#	c #0D0A05",
"t#	c #0D0A06",
"u#	c #0E0906",
"v#	c #0D0905",
"w#	c #070403",
"x#	c #020100",
"y#	c #312D33",
"z#	c #202021",
"A#	c #181716",
"B#	c #0E0A06",
"C#	c #0E0A07",
"D#	c #050301",
"E#	c #090601",
"F#	c #010101",
"G#	c #010201",
"H#	c #010000",
"I#	c #050405",
"J#	c #040304",
"  . + @ # $ % & * = - ; ; ; ; ; ; ; ; > + @ , $ % & * = - ; ; ; ; ; > + @ , $ % ' ) ! ~ { { { { ",
"] ] ^ / ( _ : < [ } | 1 1 1 1 1 1 1 1 1 2 / 3 4 5 6 [ } | 1 1 1 1 1 1 2 7 8 _ : < 9 0 a b b b b ",
"c d e f g h i j k l c c c c c c c c c d m f n o p 6 q l c c c c c c d r s t h i j k u v v v v v ",
"d w x y z A B C l D d d d d d d d d d w x y E F G H I J d d d d d d K L M N O P Q c R S S S S S ",
"d d d D T U V W c d d d d d d d d d d d d D X Y Z `  .D d d d d d d w ..+.@.#.$.%.c S S S S S S ",
"d d &.*.=.-.;.>.c d d d d d d d d d d d &.*.=.,.'.).c d d d d d d d d d !.~.-.{.].c ^.S S S S S ",
"d d /.(._.:.;.>.c d d d d d d d d d d d /.<._.U [.}.c d d d d d d d d /.<.|.1.{.].c ^.S S S S S ",
"d c *.2.3.-.+ >.d w d d d d d d d d d c *.4.5.-.+ >.d w d d d d d d c *.4.5.-.+ 6.d R S S S S S ",
"*.7.8.9.0.a.b.] m x d D /.c.D /.*.*.*.*.d.e.f.a.b.a m x d D /.c.D /.*.d.e.f.a.W 1 m  .S R g.h.S ",
"i.j.9.k.l.m.n./ f y D *.o.p.*.q.4.r.r.j.e.k.l.m.s./ f y D *.o.p.*.q.4.e.k.l.m.s.t.f u.R /.v.p.R ",
"w.w.x.l.l.l.y.z.A.B.C.D.E.F.G.H.I.J.J.w.x.l.l.l.K.L.A.B.C.D.E.F.G.H.I.M.l.l.l.K.z.N.O.P.Q.E.R.S.",
":.:.:.:.:.:.:.T.,.-.U.V.W.X.Y.Z.Y -.U U U U U U U T.,.-.U.V.W.X.Y.Z.Y -.U U U 1.`.,.-. +V.W..+++",
";.;.;.;.;.;.;.@+@+#+$+%+V.&+*+=+-+;+[.@+@+@+@+@+@+@+@+#+$+%+V.&+*+=+-+;+[.@+@+{.{.{.>+,+'+V.)+!+",
">.>.>.>.>.>.>.>.>.].~+{+]+^+/+6 ` ).}.].].].].].].].>.].~+{+]+^+/+6 ` ).}.].].].].>.6.~+(+_+:+<+",
"c c c c c c c c c x [+W }+|+1+2+D c c c c c c c c c c x [+W }+|+1+2+D c c c c c c c  .3+4+5+6+) ",
"d d d d d d d d d d 7+8+9+0+a+b+c+d d d d d d d d d d d 7+8+9+0+a+b+c+d d d d d d d S d+e+9+f+! ",
"d d d d d d d d d d g+h+i+j+k+l+D d d d d d d d d d d d g+h+i+j+k+l+D d d d d d d d S m+n+o+p+q+",
"d d d d d d d d d d r+s+t+u+v+L D d d d d d d d d d d d r+s+t+u+v+L D d d d d d d d S w+x+t+y+  ",
"d d d d d d d d d D z+A+B+C+s D+w d d d d d d d d d d D z+A+B+C+s D+w d d d d d d d R r+E+F+y+; ",
"d G+H+J I+J+r+r+r+z+K+L+M+N+O+a P+c d G+H+J Q+r+r+r+r+z+K+L+M+N+O+a P+c d G+H+J Q+r+r+R+L+S+T+U+",
"V+W+9.X+Y+Z+`+ @.@ @+@l.l.@@s.#@$@%@V+W+9.X+v.&@`+*@.@ @+@l.l.@@s.#@=@-@V+;@9.w+;@s+E+>@l.l.,@%+",
"'@)@!@~@{@X.]@^@/@!@(@_@_@:@<@[@}@|@'@o+1@~@{@2@3@^@/@!@(@_@_@:@<@[@4@5@$ {@6@7@8@9@B+0@a@a@(@b@",
"u+c@d@e@l.f@g@^+h@i@j@u+u+u+C+k@y+C+C+l@A.e@l.f@g@^+h@i@j@u+u+u+C+p+L.m@l.n@o@p@q@r@s@s@s@s@s@s@",
"t@u@v@w@x@Y.y@/+1+a+k+v+v+v+v+v+v+v+v+t@v@z@x@Y.y@/+1+a+k+v+v+v+v+s O+s.A@o@B@C@D@E@F@G@G@G@G@G@",
"D+H@I@v@J@K@=+6 2+b+l+D+D+D+D+D+D+D+D+H@L@M@N@K@=+6 2+b+l+D+D+D+L D+a O@P@Q@C@R@S@T@T@U@U@U@U@U@",
"D V@W@X@Y@Z@-+` D c+D D D D D D D D D V@W@X@`@Z@-+` D c+D D D D D w P+$@ #q@.#S@+#D R R R R R R ",
"d d d !.~.,.;+).c d d d d d d d d d d d d @#C.,.'.).c d d d d d d d c %@|@##$#T@D d S S S S S S ",
"d d /.<.%#:.&#4+c d d d d d d d d d d d d D T U [.}.c d d d d d d d d V+'@*#s L D d S S S S S S ",
"d d *.4.5.:.;.>.c d d d d d d d d d d d c.p.=#U @+].c d d d d d d d Q+;@)@C+v+D+D d S S S S S S ",
"d d *.i.w.:.;.>.c d d d d d d d d d d d *.j.w.U @+].c d d d d d d d r+s+F+u+v+D+D d S S S S S S ",
"d d *.i.w.:.;.>.c d d d d d d d d d d d *.4.J.U @+].c d d d d d d d r+A+B+u+v+D+D d S S S S S S ",
"d c 7.j.w.-.+ >.d w d d d d d d d d d c *.j.w.-.+ >.d w d d d d S d r+`+F+l@t@H@V@d S S S S S S ",
"*.7.8.9.0.a.b.] m x d D /.c.D /.*.*.*.*.d.e.f.a.b.a m x d &./.*.*.I+-#;#>#A.v@L@W@@#S h././././.",
"i.j.9.k.l.m.n./ f y D *.o.p.*.q.4.r.r.j.e.k.l.m.s./ f y D *.<.4.r.4.,#'#)#!#w@M@~#@#R {#]#i.^#^#",
"w.w.x.l.l.l.y.z.A.B.C.D.E.F.G.H.I.J.J.w.x.l.l.l.K.L.A.B.C.D./#(#_#I.l.l.l.l.:#<#[#C.}#|#1#2#3#4#",
":.:.:.:.:.:.:.T.,.-.U.V.W.X.Y.Z.Y -.U U U U U U U T.,.-.U.V.W.5#Y.6#Y -.7#U -.,.`.-.-. +8#9#0#a#",
";.;.;.;.;.;.;.@+@+#+$+%+V.&+*+=+-+;+[.@+@+@+@+@+@+@+@+#+$+%+V.g@b#=+-+;+[.@+@+{.{.{.>+,+'+V.)+c#",
">.>.>.>.>.>.>.>.>.].~+{+]+^+/+6 ` ).}.].].].].].].].>.].~+{+]+^+/+6 ` ).}.].].].].>.6.~+(+_+:+<+",
"c c c c c c c c c x [+W }+|+1+2+D c c c c c c c c c c x [+W }+|+1+2+D c c c c c c c  .3+4+5+6+) ",
"d d d d d d d d d d 7+8+9+0+a+b+c+d d d d d d d d d d d 7+8+9+0+a+b+c+d d d d d d d S d+e+9+f+! ",
"d d d d d d d d d d g+h+i+j+k+l+D d d d d d d d d d d d g+h+i+j+k+l+D d d d d d d d S m+n+o+p+q+",
"d d d d d d d d d d r+s+F+u+v+D+D d d d d d d d d d d d r+s+F+u+v+D+D d d d d d d d d w+s+t+y+  ",
"d d d d d d d d d d r+A+B+u+v+D+D d d d d d d d d d d d r+A+B+u+v+D+D d d d d d d d d J+E+F+y+  ",
"d d d d d d d d S d r+`+F+l@t@H@V@d d d d d d d d d S d r+`+F+l@t@H@V@d d d d d d S S w+s+F+s@d#",
"d c./.D J *.*.*.*.I+-#;#>#A.v@L@W@d d c./.D J *.*.*.*.I+-#;#>#A.v@L@W@d d c./.D J *.-@e#f#>#A.+ ",
"D g#o.*.h#i#2.i.r.4.,#'#)#!#z@M@X@@#D j#o.*.h#j.4.r.r.4.,#'#)#!#z@M@X@@#D j#o.*.h#j.r.k#8#)#l#m#",
"n#o#p#D.q#r#s#t#u#v#w#l.l.x#!#A.y#z#S.R.E.D.A#B#v#2#u#v#w#l.l.x#!#A.y#z#S.R.E.D.A#C#2#w#l.l.D#E#",
")#F#F#G#F#H#H#H#H#H#l.l.l.l.W.I#J#)#)#F#F#G#F#H#H#H#H#H#l.l.l.l.W.I#J#)#)#F#F#G#F#H#H#H#l.l.l.H#"};
