/* XPM */
static char * wall32_xpm[] = {
"32 32 85 1",
" 	c #222222",
".	c #453835",
"+	c #69514C",
"@	c #775C55",
"#	c #785C55",
"$	c #68514B",
"%	c #202121",
"&	c #403532",
"*	c #604B46",
"=	c #6D554F",
"-	c #6E554F",
";	c #624C48",
">	c #463936",
",	c #2E2929",
"'	c #443735",
")	c #5E4944",
"!	c #69514B",
"~	c #362E2D",
"{	c #4D3E3C",
"]	c #574542",
"^	c #584643",
"/	c #4D3E3B",
"(	c #574642",
"_	c #52423F",
":	c #473A39",
"<	c #403635",
"[	c #423635",
"}	c #2F2A2A",
"|	c #413635",
"1	c #483B3A",
"2	c #493B3A",
"3	c #463A39",
"4	c #433736",
"5	c #433737",
"6	c #372F2F",
"7	c #302A2A",
"8	c #403535",
"9	c #473B3A",
"0	c #403534",
"a	c #423636",
"b	c #362F2E",
"c	c #423736",
"d	c #3F3534",
"e	c #2C2828",
"f	c #3A3131",
"g	c #3A3130",
"h	c #2B2727",
"i	c #393030",
"j	c #2A2727",
"k	c #2B2827",
"l	c #262424",
"m	c #252424",
"n	c #212222",
"o	c #2E2928",
"p	c #3F3431",
"q	c #463935",
"r	c #3E3431",
"s	c #2F2928",
"t	c #3E3331",
"u	c #5C4843",
"v	c #69524C",
"w	c #242323",
"x	c #624C47",
"y	c #413533",
"z	c #614C47",
"A	c #473937",
"B	c #5D4944",
"C	c #6A524C",
"D	c #6C544E",
"E	c #483A39",
"F	c #534240",
"G	c #4E3E3C",
"H	c #372F2D",
"I	c #53423F",
"J	c #483B39",
"K	c #4B3D39",
"L	c #544340",
"M	c #393130",
"N	c #212121",
"O	c #5C4943",
"P	c #4E3F3C",
"Q	c #453938",
"R	c #463938",
"S	c #38302F",
"T	c #2D2828",
" .+@#@@#@$..$@#@@#@$..$##+.%%.+@",
" &*=-==-=*&&*=-==-=*&&*--;>,,')!",
" ~{]^]]^]/~~/]^]]^]/~~/(^_:<<['.",
" }|121121<}}<123453<}}<354311467",
" }89199190}}011abba0}}0abbc113cd",
" ef<8dd8<ghhg<8ijhiihkggkjid0ddd",
" le}}}}}}elle}}emleelleelme}}}77",
" n opqqrosrtoopq>qqqqroorqqqqqqq",
" % tuvvutpuuptu!v!!v!uttu!v!!!!!",
" we>x--*&y*zA'BCD==-=*&&*=-=====",
" efEF^^G~HGIJ[.KL^^^^G~~G^^^^^^^",
" }|1221<}}<22<}}<1221<}}<3543111",
" }|11190}}0118,,d91190}}0abba919",
" eM0<<0ijji00MeeMd08<ghhiihhg|||",
" le}}}}elle}}elle}}}}elleelme}}}",
" sptoopq>qqqqroorqqroorqqqqpo Nn",
" puuptu!v!!v!uttuvvuttu!vv!Otn%n",
" y*zA'BCD==-=*&&*--*&&*=--=*&lh}",
" HPIJ[.KL^^^^G~~G^^G~~G^^^^P~eg|",
" }|1246641121<}}<1246641121<}}<1",
" }8113caQ99190}}091RccR99190}}<1",
" eMd00<<00<<0ijjid00<<0dd8<ghjid",
" le}}}77}}}}}elle}}}77}}}}}elle}",
" opqqrosrrsorqqqqqqroorqqtootqqq",
" tuvvutpuuptu!v!!v!uttuvvuttu!v!",
" &*--*&y**y&*=-==-=*&&*--z>>z=-=",
" ~P^^G~HGGH~G^^^^^^G~~G^^_EE_^^^",
" }|22<}7<4S64113453<}}<354311111",
" }8110}}0R4cR19abba0}}0abbc11999",
" ef||feef||||||feTffTTffTef|||||",
" le}}elle}77}}}emleelleelme}}}}}",
"                                "};
